<?xml version="1.0" encoding="UTF-8" standalone="no"?><!DOCTYPE svg PUBLIC "-//W3C//DTD SVG 1.1//EN" "http://www.w3.org/Graphics/SVG/1.1/DTD/svg11.dtd"><svg width="100%" height="100%" viewBox="0 0 4340 1453" version="1.1" xmlns="http://www.w3.org/2000/svg" xmlns:xlink="http://www.w3.org/1999/xlink" xml:space="preserve" xmlns:serif="http://www.serif.com/" style="fill-rule:evenodd;clip-rule:evenodd;stroke-linejoin:round;stroke-miterlimit:2;"><path d="M1902.532,293.433l-74.976,0l0,-50.827l22.244,0c19.063,0 34.313,-6.694 45.739,-20.038c11.438,-13.344 17.156,-36.507 17.156,-69.546l0,-28.594l64.17,0l0,45.739c0,24.15 -6.55,41.938 -19.694,53.376c-13.144,11.438 -34.313,17.788 -63.539,19.063l188.699,0l0,50.827l-115.629,0l0,155.649c0,19.495 3.812,33.138 11.438,40.963c7.625,7.858 21.169,11.77 40.664,11.77l60.99,0l0,44.476c-8.057,3.414 -18.73,5.918 -32.074,7.625c-13.333,1.674 -28.084,2.538 -44.166,2.538c-13.144,0 -25.712,-1.574 -37.793,-4.744c-12.069,-3.214 -22.764,-8.357 -32.096,-15.583c-9.332,-7.193 -16.824,-16.624 -22.543,-28.295c-5.719,-11.637 -8.589,-26.112 -8.589,-43.501l0,-170.899Z" style="fill:#fff;fill-rule:nonzero;"/><path d="M2422.878,461.152c-11.006,32.207 -29.425,56.013 -55.271,71.463c-25.857,15.483 -56.545,23.208 -92.133,23.208c-23.307,0 -44.675,-3.414 -64.17,-10.163c-19.495,-6.761 -36.009,-16.857 -49.552,-30.201c-13.577,-13.344 -24.139,-29.924 -31.764,-49.851c-7.625,-19.905 -11.438,-42.769 -11.438,-68.615c0,-25.846 3.812,-48.621 11.438,-68.315c7.625,-19.695 18.187,-36.219 31.764,-49.563c13.544,-13.344 30.057,-23.374 49.552,-30.157c19.495,-6.794 40.863,-10.163 64.17,-10.163c39.832,0 72.97,9.531 99.448,28.583c26.455,19.063 43.711,47.225 51.768,84.508l-62.264,0.632c-7.193,-18.63 -18.22,-32.606 -33.038,-41.938c-14.818,-9.321 -33.038,-13.976 -54.639,-13.976c-30.501,0 -53.908,8.8 -70.189,26.355c-16.314,17.589 -24.482,41.827 -24.482,72.76c0,34.302 8.456,59.915 25.413,76.872c16.957,16.957 40.032,25.413 69.257,25.413c22.033,0 40.763,-4.843 56.246,-14.607c15.45,-9.731 26.344,-24.781 32.706,-45.108l57.177,22.864Z" style="fill:#fff;fill-rule:nonzero;"/><path d="M1274.043,999.048c-64.174,188.067 -194.272,345.894 -361.785,446.017l0,-267.751c0,-98.734 -80.046,-178.78 -178.78,-178.78l-149.243,0c-95.575,0 -173.071,-77.496 -173.071,-173.09l0,-422.952c45.409,32.506 146.522,50.604 197.507,50.604l303.587,0l0,-445.998c166.79,99.686 296.508,256.58 360.948,443.601c1.237,0.894 2.131,1.523 3.369,2.398l444.857,0.019c2.131,0 3.464,-1.713 3.464,-3.825c0,-248.13 -201.161,-449.291 -449.291,-449.291l-362.508,0c-0.476,0 -0.457,0.533 -0.837,0.666l0,-0.666l-167.171,0c-357.921,0 -677.666,251.061 -735.179,604.358c-73.956,454.22 276.125,847.292 715.919,847.292l186.43,0l0,-0.152c0.381,0.133 0.362,0.666 0.837,0.666l362.47,0c248.244,0 449.519,-201.351 449.329,-449.652c0,-1.884 -1.561,-3.464 -3.464,-3.464l-447.388,0Z" style="fill:#fff;fill-rule:nonzero;"/><path d="M2429.605,863.862c-4.987,4.987 -10.296,9.897 -15.915,14.685c-5.652,4.777 -11.87,8.966 -18.763,12.502c-6.883,3.547 -14.674,6.362 -23.44,8.434c-8.722,2.106 -18.52,3.136 -29.359,3.136c-41.262,0 -61.865,-16.879 -61.865,-50.627c0,-17.079 5.087,-29.691 15.317,-37.815c10.196,-8.124 28.195,-12.169 54.04,-12.169l79.986,0l0,61.854Zm-59.992,-214.345c-22.066,0 -44.376,1.474 -66.875,4.389c-22.476,2.904 -41.672,6.65 -57.488,11.227l6.894,49.995c13.311,-3.746 28.616,-6.55 45.906,-8.423c17.289,-1.873 35.72,-2.815 55.315,-2.815c50.394,0 75.608,20.836 75.608,62.497l-96.843,0c-17.09,0 -32.806,1.984 -47.18,5.918c-14.386,3.979 -26.688,10.241 -36.884,18.763c-10.207,8.523 -18.231,19.262 -24.05,32.174c-5.852,12.901 -8.756,28.55 -8.756,46.881c0,30.39 7.592,53.099 22.809,68.116c15.206,14.973 36.142,22.498 62.796,22.498c15.018,0 29.292,-2.738 42.836,-8.124c13.51,-5.42 25.912,-12.502 37.15,-21.268c11.271,-8.722 21.168,-18.63 29.691,-29.691c8.523,-11.005 15.117,-22.177 19.695,-33.404l7.492,88.11l55.005,0l0,-197.476c0,-35.831 -10.729,-63.018 -32.196,-81.571c-21.468,-18.531 -51.769,-27.796 -90.925,-27.796Z" style="fill:#fff;fill-rule:nonzero;"/><path d="M2718.018,658.284c-13.111,5.819 -24.782,13.843 -35.011,24.039c-10.196,10.196 -19.262,22.177 -27.153,35.953c-7.924,13.743 -14.375,28.317 -19.395,43.733l0,-109.378l-63.738,0l0,303.097l63.738,0l0,-188.721c8.323,-17.5 19.262,-30.933 32.806,-40.309c13.544,-9.365 30.534,-14.075 50.926,-14.075l66.243,0l0,-63.106l-25.613,0c-15.417,0 -29.691,2.915 -42.802,8.767Z" style="fill:#fff;fill-rule:nonzero;"/><path d="M2937.006,633.902c12.911,-11.26 19.395,-28.749 19.395,-52.5l0,-45.008l-63.129,0l0,28.129c0,32.495 -5.619,55.304 -16.857,68.448c-11.271,13.111 -26.245,19.661 -45.008,19.661l-21.867,0l0,49.995l73.735,0l0,168.095c0,17.09 2.804,31.365 8.423,42.836c5.652,11.438 13.045,20.703 22.199,27.785c9.166,7.093 19.706,12.202 31.575,15.317c11.87,3.114 24.239,4.677 37.183,4.677c15.815,0 30.29,-0.831 43.401,-2.505c13.144,-1.64 23.64,-4.145 31.565,-7.492l0,-43.733l-59.992,0c-19.152,0 -32.495,-3.846 -39.987,-11.571c-7.492,-7.692 -11.238,-21.135 -11.238,-40.298l0,-153.111l113.733,0l0,-49.995l-185.596,0c28.727,-1.241 49.563,-7.492 62.464,-18.73Z" style="fill:#fff;fill-rule:nonzero;"/><path d="M3303.875,648.886c-12.513,0 -24.682,2.505 -36.552,7.492c-11.903,5.01 -23.341,12.103 -34.379,21.268c-11.061,9.166 -21.169,19.894 -30.323,32.163c-9.166,12.313 -17.09,25.956 -23.751,40.93l0,-98.107l-63.727,0l0,303.097l63.727,0l0,-199.97c10.839,-15.815 23.241,-28.129 37.194,-36.884c13.942,-8.722 28.217,-13.111 42.802,-13.111c20.426,0 35.942,7.093 46.571,21.235c10.606,14.186 15.926,33.736 15.926,58.751l0,169.98l63.128,0l0,-187.457c0,-37.926 -6.993,-67.285 -20.935,-88.121c-13.976,-20.836 -33.87,-31.265 -59.682,-31.265Z" style="fill:#fff;fill-rule:nonzero;"/><path d="M3495.676,782.004c2.505,-26.244 12.501,-46.881 29.99,-61.854c17.489,-15.017 39.167,-22.509 65.013,-22.509c24.981,0 45.374,7.292 61.223,21.867c15.815,14.585 25.014,35.41 27.486,62.497l-183.711,0Zm230.903,-35.942c-6.062,-21.435 -15.317,-39.356 -27.796,-53.741c-12.501,-14.375 -27.818,-25.214 -45.939,-32.495c-18.132,-7.293 -38.225,-10.939 -60.291,-10.939c-22.51,0 -43.135,3.447 -61.865,10.329c-18.763,6.86 -35.011,16.957 -48.754,30.301c-13.743,13.344 -24.482,29.691 -32.207,49.053c-7.68,19.362 -11.526,41.362 -11.526,65.944c0,24.981 3.502,47.28 10.595,66.841c7.093,19.595 16.99,35.953 29.691,49.053c12.712,13.144 27.929,23.141 45.617,30.002c17.722,6.882 37.383,10.329 59.05,10.329c34.579,0 64.071,-7.426 88.442,-22.199c24.383,-14.785 41.539,-36.552 51.536,-65.312l-51.869,-20.625c-7.492,18.752 -19.063,32.939 -34.679,42.492c-15.616,9.598 -33.437,14.386 -53.431,14.386c-24.981,0 -45.407,-7.891 -61.223,-23.74c-15.86,-15.815 -24.781,-37.494 -26.887,-65.013l238.716,0c1.274,-28.317 -1.13,-53.198 -7.182,-74.666Z" style="fill:#fff;fill-rule:nonzero;"/><path d="M3939.051,658.284c-13.111,5.819 -24.781,13.843 -35.011,24.039c-10.208,10.196 -19.262,22.177 -27.153,35.953c-7.924,13.743 -14.386,28.317 -19.395,43.733l0,-109.378l-63.738,0l0,303.097l63.738,0l0,-188.721c8.323,-17.5 19.262,-30.933 32.806,-40.309c13.544,-9.365 30.522,-14.075 50.926,-14.075l66.243,0l0,-63.106l-25.613,0c-15.416,0 -29.702,2.915 -42.802,8.767Z" style="fill:#fff;fill-rule:nonzero;"/><path d="M4316.814,812.936c-15.416,-14.375 -42.304,-24.272 -80.629,-29.691l-69.346,-9.365c-18.763,-2.505 -33.105,-7.082 -43.113,-13.743c-9.997,-6.65 -15.006,-14.774 -15.006,-24.371c0,-5.021 1.23,-9.698 3.746,-14.087c2.505,-4.345 6.65,-8.323 12.501,-11.87c5.818,-3.502 13.543,-6.351 23.108,-8.423c9.598,-2.072 21.468,-3.114 35.643,-3.114c32.074,0 55.282,5.519 69.657,16.558c14.375,11.039 21.568,24.471 21.568,40.309l55.614,0c0,-14.995 -3.114,-28.971 -9.365,-41.883c-6.251,-12.912 -15.416,-24.139 -27.486,-33.737c-12.114,-9.598 -27.286,-17.09 -45.651,-22.509c-18.32,-5.42 -39.555,-8.124 -63.727,-8.124c-46.249,0 -80.728,7.924 -103.437,23.74c-22.698,15.849 -34.036,36.685 -34.036,62.497c0,22.908 8.124,41.871 24.372,56.889c16.259,14.973 43.512,25.413 81.859,31.232l64.98,9.354c22.909,3.347 38.657,8.024 47.18,14.087c8.556,6.051 12.812,13.643 12.812,22.798c0,5.42 -1.441,10.64 -4.355,15.616c-2.937,5.021 -7.825,9.398 -14.707,13.144c-6.86,3.746 -16.015,6.65 -27.486,8.733c-11.471,2.106 -25.713,3.136 -42.802,3.136c-33.748,0 -58.319,-5.719 -73.735,-17.19c-15.416,-11.471 -23.141,-25.513 -23.141,-42.193l-55.603,0c0,15.416 3.336,29.791 9.997,43.135c6.65,13.344 16.347,24.881 29.06,34.679c12.701,9.797 28.516,17.489 47.479,23.13c18.963,5.619 40.963,8.434 65.944,8.434c51.225,0 89.251,-8.323 114.055,-25.014c24.781,-16.658 37.183,-38.524 37.183,-65.611c0,-23.341 -7.725,-42.16 -23.13,-56.545Z" style="fill:#fff;fill-rule:nonzero;"/><path d="M2099.244,873.682c-4.987,16.026 -11.571,29.259 -19.694,39.666c-8.135,10.429 -17.29,18.021 -27.497,22.798c-10.196,4.821 -20.293,7.193 -30.29,7.193c-8.357,0 -16.691,-1.142 -25.014,-3.414c-8.323,-2.305 -15.616,-5.752 -21.867,-10.329l0,-211.197c6.65,-7.525 14.674,-13.144 24.072,-16.89c9.365,-3.746 18.431,-5.619 27.187,-5.619c22.908,0 42.071,10.74 57.487,32.174c15.416,21.468 23.097,50.727 23.097,87.81c0,22.498 -2.472,41.761 -7.481,57.809Zm54.373,-176.219c-11.238,-12.302 -24.383,-21.9 -39.367,-28.76c-15.006,-6.883 -31.066,-10.296 -48.111,-10.296c-20.005,0 -38.125,4.677 -54.373,14.042c-16.259,9.365 -28.561,19.894 -36.884,31.564l0,-40.885l-90.537,0.022l0,21.468c4.533,0 28.129,0.466 28.129,14.386l0,376.189l62.408,0l0,-130.58c8.323,6.65 18.752,11.97 31.265,15.915c12.468,3.946 25.38,5.952 38.724,5.952c17.921,0 35.51,-3.846 52.799,-11.571c17.289,-7.692 32.806,-18.763 46.582,-33.105c13.743,-14.375 24.87,-31.764 33.404,-52.201c8.556,-20.393 12.823,-43.534 12.823,-69.346c0,-21.268 -3.336,-40.63 -9.986,-58.119c-6.683,-17.522 -15.649,-32.407 -26.876,-44.676Z" style="fill:#fff;fill-rule:nonzero;"/><path d="M3483.241,1105.139l-19.196,0c-6.184,0 -10.562,1.009 -13.144,3.015c-2.538,2.006 -3.846,5.143 -3.846,9.421c0,8.235 4.921,12.346 14.685,12.346c5.387,0 9.731,-1.009 13.078,-3.015c3.336,-2.006 6.151,-4.378 8.423,-7.115l0,-14.652Zm-0.133,-6.583c0,-10.141 -5.852,-15.217 -17.555,-15.217c-8.767,0 -16.259,0.831 -22.443,2.471l-1.363,-9.166c3.535,-0.998 7.714,-1.807 12.535,-2.405c4.777,-0.598 9.465,-0.898 14.009,-0.898c8.323,0 14.785,2.006 19.395,5.985c4.611,3.946 6.927,9.831 6.927,17.589l0,42.603l-9.731,0l-1.507,-18.896c-1.008,2.372 -2.405,4.744 -4.245,7.126c-1.84,2.372 -3.979,4.478 -6.461,6.351c-2.438,1.873 -5.176,3.414 -8.19,4.577c-3.003,1.208 -6.251,1.807 -9.731,1.807c-6.018,0 -10.762,-1.674 -14.242,-4.943c-3.48,-3.281 -5.22,-8.268 -5.22,-14.918c0,-7.592 2.305,-13.178 6.927,-16.724c4.611,-3.569 10.695,-5.342 18.287,-5.342l22.609,0Z" style="fill:#fff;fill-rule:nonzero;"/><path d="M3521.422,1091.429c0,2.272 1.175,4.245 3.513,5.885c2.305,1.64 5.686,2.804 10.064,3.447l16.159,2.039c8.124,1.197 13.843,3.314 17.19,6.384c3.336,3.048 5.009,6.993 5.009,11.837c0,5.752 -2.671,10.396 -8.024,13.976c-5.353,3.547 -13.544,5.32 -24.582,5.32c-5.308,0 -9.997,-0.565 -14.108,-1.773c-4.112,-1.164 -7.559,-2.804 -10.329,-4.91c-2.815,-2.106 -4.921,-4.588 -6.317,-7.392c-1.407,-2.848 -2.117,-5.852 -2.117,-9.066l10.141,0c0,3.946 1.84,7.259 5.553,9.93c3.668,2.715 9.421,4.045 17.178,4.045c4.112,0 7.526,-0.266 10.274,-0.831c2.738,-0.532 4.91,-1.275 6.584,-2.239c1.64,-0.975 2.804,-2.073 3.546,-3.281c0.732,-1.241 1.097,-2.538 1.097,-3.912c0,-2.106 -1.031,-3.945 -3.07,-5.486c-2.073,-1.541 -5.785,-2.704 -11.172,-3.403l-15.483,-2.217c-8.124,-1.164 -13.843,-3.402 -17.19,-6.65c-3.336,-3.247 -5.009,-7.193 -5.009,-11.837c0,-5.386 2.438,-9.764 7.359,-13.144c4.877,-3.38 12.269,-5.076 22.233,-5.076c5.286,0 9.897,0.598 13.843,1.795c3.912,1.175 7.193,2.782 9.797,4.788c2.604,2.006 4.544,4.378 5.818,7.126c1.274,2.737 1.906,5.719 1.906,8.888l-10.263,0c0,-1.806 -0.399,-3.547 -1.241,-5.22c-0.831,-1.629 -2.106,-3.07 -3.846,-4.311c-1.74,-1.197 -3.946,-2.172 -6.617,-2.871c-2.715,-0.676 -5.918,-1.009 -9.664,-1.009c-3.38,0 -6.217,0.233 -8.567,0.743c-2.338,0.499 -4.212,1.197 -5.686,2.073c-1.463,0.864 -2.472,1.84 -3.07,2.937c-0.598,1.108 -0.909,2.239 -0.909,3.414Z" style="fill:#fff;fill-rule:nonzero;"/><path d="M3595.667,1091.429c0,2.272 1.163,4.245 3.502,5.885c2.316,1.64 5.686,2.804 10.074,3.447l16.148,2.039c8.124,1.197 13.843,3.314 17.19,6.384c3.336,3.048 5.009,6.993 5.009,11.837c0,5.752 -2.671,10.396 -8.024,13.976c-5.353,3.547 -13.544,5.32 -24.582,5.32c-5.308,0 -9.997,-0.565 -14.108,-1.773c-4.112,-1.164 -7.559,-2.804 -10.329,-4.91c-2.815,-2.106 -4.921,-4.588 -6.317,-7.392c-1.407,-2.848 -2.106,-5.852 -2.106,-9.066l10.13,0c0,3.946 1.84,7.259 5.553,9.93c3.68,2.715 9.421,4.045 17.178,4.045c4.123,0 7.526,-0.266 10.274,-0.831c2.738,-0.532 4.91,-1.275 6.584,-2.239c1.64,-0.975 2.815,-2.073 3.546,-3.281c0.732,-1.241 1.097,-2.538 1.097,-3.912c0,-2.106 -1.031,-3.945 -3.07,-5.486c-2.073,-1.541 -5.785,-2.704 -11.172,-3.403l-15.483,-2.217c-8.124,-1.164 -13.843,-3.402 -17.19,-6.65c-3.336,-3.247 -5.009,-7.193 -5.009,-11.837c0,-5.386 2.438,-9.764 7.359,-13.144c4.877,-3.38 12.269,-5.076 22.233,-5.076c5.286,0 9.897,0.598 13.843,1.795c3.912,1.175 7.193,2.782 9.797,4.788c2.604,2.006 4.555,4.378 5.818,7.126c1.275,2.737 1.906,5.719 1.906,8.888l-10.263,0c0,-1.806 -0.399,-3.547 -1.241,-5.22c-0.831,-1.629 -2.106,-3.07 -3.846,-4.311c-1.74,-1.197 -3.946,-2.172 -6.617,-2.871c-2.715,-0.676 -5.918,-1.009 -9.664,-1.009c-3.38,0 -6.217,0.233 -8.567,0.743c-2.338,0.499 -4.212,1.197 -5.674,2.073c-1.474,0.864 -2.483,1.84 -3.081,2.937c-0.598,1.108 -0.898,2.239 -0.898,3.414Z" style="fill:#fff;fill-rule:nonzero;"/><path d="M3710.997,1102.667c-0.477,-6.395 -2.549,-11.404 -6.218,-15.084c-3.713,-3.646 -8.501,-5.453 -14.319,-5.453c-3.103,0 -5.985,0.465 -8.623,1.441c-2.682,0.931 -4.987,2.305 -6.993,4.112c-2.006,1.773 -3.613,3.912 -4.81,6.417c-1.175,2.516 -1.873,5.353 -2.039,8.567l43.002,0Zm7.658,19.018c-2.072,6.062 -5.752,10.673 -11.005,13.92c-5.253,3.236 -11.571,4.877 -18.996,4.877c-4.643,0 -8.889,-0.731 -12.734,-2.206c-3.812,-1.474 -7.126,-3.646 -9.831,-6.517c-2.749,-2.882 -4.888,-6.395 -6.395,-10.606c-1.496,-4.211 -2.272,-8.988 -2.272,-14.375c0,-5.386 0.843,-10.163 2.471,-14.319c1.64,-4.145 3.957,-7.647 6.927,-10.462c2.981,-2.837 6.484,-5.01 10.529,-6.517c4.089,-1.507 8.534,-2.272 13.377,-2.272c4.754,0 9.033,0.765 12.878,2.272c3.813,1.507 7.06,3.779 9.731,6.849c2.637,3.048 4.643,6.86 6.018,11.438c1.374,4.544 1.973,9.897 1.773,16.015l-53.265,0c0.366,6.495 2.372,11.637 6.084,15.483c3.713,3.846 8.556,5.752 14.574,5.752c4.755,0 9,-1.13 12.679,-3.336c3.713,-2.25 6.417,-5.519 8.157,-9.797l9.298,3.801Z" style="fill:#fff;fill-rule:nonzero;"/><path d="M3743.326,1091.429c0,2.272 1.175,4.245 3.513,5.885c2.305,1.64 5.686,2.804 10.064,3.447l16.159,2.039c8.124,1.197 13.843,3.314 17.179,6.384c3.347,3.048 5.021,6.993 5.021,11.837c0,5.752 -2.671,10.396 -8.024,13.976c-5.353,3.547 -13.544,5.32 -24.582,5.32c-5.309,0 -9.997,-0.565 -14.108,-1.773c-4.112,-1.164 -7.559,-2.804 -10.329,-4.91c-2.815,-2.106 -4.921,-4.588 -6.329,-7.392c-1.396,-2.848 -2.106,-5.852 -2.106,-9.066l10.141,0c0,3.946 1.84,7.259 5.541,9.93c3.68,2.715 9.432,4.045 17.19,4.045c4.112,0 7.526,-0.266 10.274,-0.831c2.738,-0.532 4.91,-1.275 6.583,-2.239c1.64,-0.975 2.804,-2.073 3.547,-3.281c0.732,-1.241 1.097,-2.538 1.097,-3.912c0,-2.106 -1.031,-3.945 -3.07,-5.486c-2.072,-1.541 -5.785,-2.704 -11.172,-3.403l-15.483,-2.217c-8.124,-1.164 -13.843,-3.402 -17.19,-6.65c-3.347,-3.247 -5.009,-7.193 -5.009,-11.837c0,-5.386 2.438,-9.764 7.348,-13.144c4.888,-3.38 12.28,-5.076 22.244,-5.076c5.286,0 9.897,0.598 13.843,1.795c3.912,1.175 7.193,2.782 9.797,4.788c2.604,2.006 4.544,4.378 5.818,7.126c1.274,2.737 1.906,5.719 1.906,8.888l-10.263,0c0,-1.806 -0.41,-3.547 -1.241,-5.22c-0.831,-1.629 -2.106,-3.07 -3.846,-4.311c-1.74,-1.197 -3.945,-2.172 -6.616,-2.871c-2.715,-0.676 -5.918,-1.009 -9.664,-1.009c-3.38,0 -6.228,0.233 -8.567,0.743c-2.338,0.499 -4.212,1.197 -5.686,2.073c-1.463,0.864 -2.472,1.84 -3.07,2.937c-0.609,1.108 -0.909,2.239 -0.909,3.414Z" style="fill:#fff;fill-rule:nonzero;"/><path d="M3817.559,1091.429c0,2.272 1.175,4.245 3.513,5.885c2.305,1.64 5.686,2.804 10.064,3.447l16.159,2.039c8.124,1.197 13.843,3.314 17.19,6.384c3.336,3.048 5.009,6.993 5.009,11.837c0,5.752 -2.671,10.396 -8.024,13.976c-5.353,3.547 -13.544,5.32 -24.582,5.32c-5.309,0 -9.997,-0.565 -14.108,-1.773c-4.112,-1.164 -7.559,-2.804 -10.329,-4.91c-2.815,-2.106 -4.921,-4.588 -6.317,-7.392c-1.407,-2.848 -2.117,-5.852 -2.117,-9.066l10.141,0c0,3.946 1.84,7.259 5.553,9.93c3.668,2.715 9.421,4.045 17.178,4.045c4.112,0 7.526,-0.266 10.274,-0.831c2.738,-0.532 4.91,-1.275 6.583,-2.239c1.64,-0.975 2.804,-2.073 3.547,-3.281c0.732,-1.241 1.097,-2.538 1.097,-3.912c0,-2.106 -1.031,-3.945 -3.07,-5.486c-2.073,-1.541 -5.785,-2.704 -11.172,-3.403l-15.483,-2.217c-8.124,-1.164 -13.843,-3.402 -17.19,-6.65c-3.336,-3.247 -5.009,-7.193 -5.009,-11.837c0,-5.386 2.438,-9.764 7.359,-13.144c4.877,-3.38 12.269,-5.076 22.233,-5.076c5.286,0 9.897,0.598 13.843,1.795c3.912,1.175 7.193,2.782 9.797,4.788c2.604,2.006 4.544,4.378 5.818,7.126c1.274,2.737 1.906,5.719 1.906,8.888l-10.263,0c0,-1.806 -0.399,-3.547 -1.241,-5.22c-0.831,-1.629 -2.106,-3.07 -3.846,-4.311c-1.74,-1.197 -3.946,-2.172 -6.617,-2.871c-2.715,-0.676 -5.918,-1.009 -9.664,-1.009c-3.38,0 -6.218,0.233 -8.567,0.743c-2.338,0.499 -4.212,1.197 -5.686,2.073c-1.463,0.864 -2.472,1.84 -3.07,2.937c-0.599,1.108 -0.909,2.239 -0.909,3.414Z" style="fill:#fff;fill-rule:nonzero;"/><path d="M3890.563,1106.646c0,7.492 2.039,13.244 6.118,17.323c4.045,4.045 9.631,6.085 16.757,6.085c7.049,0 12.601,-2.039 16.713,-6.151c4.112,-4.112 6.151,-9.864 6.151,-17.256c0,-7.226 -2.006,-12.878 -6.084,-16.924c-4.046,-4.079 -9.664,-6.085 -16.78,-6.085c-7.392,0 -13.045,2.106 -16.99,6.351c-3.913,4.245 -5.885,9.797 -5.885,16.658Zm-11.371,0.133c0,-5.287 0.831,-10.03 2.471,-14.175c1.64,-4.156 3.979,-7.658 6.993,-10.54c3.003,-2.871 6.616,-5.076 10.828,-6.583c4.189,-1.507 8.833,-2.272 13.953,-2.272c5.109,0 9.797,0.765 13.975,2.272c4.212,1.507 7.791,3.713 10.762,6.583c2.948,2.882 5.253,6.384 6.927,10.54c1.64,4.145 2.438,8.889 2.438,14.175c0,5.287 -0.798,10.03 -2.438,14.242c-1.674,4.211 -3.979,7.725 -6.927,10.606c-2.97,2.871 -6.55,5.076 -10.762,6.583c-4.178,1.507 -8.866,2.272 -13.975,2.272c-5.12,0 -9.764,-0.765 -13.953,-2.272c-4.212,-1.507 -7.825,-3.713 -10.828,-6.583c-3.015,-2.882 -5.353,-6.395 -6.993,-10.606c-1.64,-4.211 -2.471,-8.955 -2.471,-14.242Z" style="fill:#fff;fill-rule:nonzero;"/><path d="M3962.092,1074.04l11.36,0l0,23.839c1.274,-3.68 2.815,-6.982 4.588,-9.997c1.773,-3.004 3.846,-5.619 6.151,-7.825c2.338,-2.172 4.877,-3.879 7.625,-5.043c2.704,-1.208 5.686,-1.807 8.889,-1.807l6.561,0l0,11.36l-13.544,0c-4.655,0 -8.667,1.241 -12.003,3.646c-3.314,2.416 -6.085,5.952 -8.268,10.606l0,40.564l-11.36,0l0,-65.345Z" style="fill:#fff;fill-rule:nonzero;"/><path d="M4020.81,1074.04l11.371,0l0,65.345l-11.371,0l0,-65.345Zm-3.979,-24.649c0,-2.837 0.898,-5.176 2.671,-6.982c1.806,-1.84 4.145,-2.749 7.06,-2.749c2.937,0 5.242,0.909 6.982,2.749c1.74,1.807 2.615,4.145 2.615,6.982c0,3.015 -0.876,5.42 -2.615,7.259c-1.74,1.807 -4.046,2.749 -6.982,2.749c-2.915,0 -5.253,-0.942 -7.06,-2.749c-1.773,-1.84 -2.671,-4.245 -2.671,-7.259Z" style="fill:#fff;fill-rule:nonzero;"/><path d="M4096.418,1105.139l-19.196,0c-6.184,0 -10.573,1.009 -13.144,3.015c-2.538,2.006 -3.846,5.143 -3.846,9.421c0,8.235 4.91,12.346 14.685,12.346c5.375,0 9.731,-1.009 13.067,-3.015c3.347,-2.006 6.151,-4.378 8.434,-7.115l0,-14.652Zm-0.144,-6.583c0,-10.141 -5.852,-15.217 -17.556,-15.217c-8.756,0 -16.248,0.831 -22.432,2.471l-1.375,-9.166c3.547,-0.998 7.725,-1.807 12.546,-2.405c4.777,-0.598 9.465,-0.898 14.009,-0.898c8.323,0 14.773,2.006 19.395,5.985c4.61,3.946 6.916,9.831 6.916,17.589l0,42.603l-9.731,0l-1.496,-18.896c-1.009,2.372 -2.416,4.744 -4.256,7.126c-1.84,2.372 -3.979,4.478 -6.45,6.351c-2.438,1.873 -5.187,3.414 -8.19,4.577c-3.014,1.208 -6.251,1.807 -9.731,1.807c-6.018,0 -10.772,-1.674 -14.242,-4.943c-3.48,-3.281 -5.22,-8.268 -5.22,-14.918c0,-7.592 2.305,-13.178 6.916,-16.724c4.622,-3.569 10.706,-5.342 18.298,-5.342l22.598,0Z" style="fill:#fff;fill-rule:nonzero;"/><path d="M4210.938,1102.667c-0.465,-6.395 -2.538,-11.404 -6.217,-15.084c-3.713,-3.646 -8.49,-5.453 -14.308,-5.453c-3.114,0 -5.985,0.465 -8.634,1.441c-2.671,0.931 -4.976,2.305 -6.982,4.112c-2.006,1.773 -3.613,3.912 -4.821,6.417c-1.164,2.516 -1.873,5.353 -2.039,8.567l43.002,0Zm7.658,19.018c-2.073,6.062 -5.752,10.673 -10.994,13.92c-5.253,3.236 -11.571,4.877 -18.996,4.877c-4.655,0 -8.9,-0.731 -12.745,-2.206c-3.813,-1.474 -7.115,-3.646 -9.831,-6.517c-2.737,-2.882 -4.876,-6.395 -6.384,-10.606c-1.507,-4.211 -2.272,-8.988 -2.272,-14.375c0,-5.386 0.831,-10.163 2.471,-14.319c1.64,-4.145 3.945,-7.647 6.927,-10.462c2.97,-2.837 6.483,-5.01 10.529,-6.517c4.079,-1.507 8.523,-2.272 13.377,-2.272c4.744,0 9.033,0.765 12.879,2.272c3.801,1.507 7.049,3.779 9.731,6.849c2.638,3.048 4.644,6.86 6.018,11.438c1.363,4.544 1.973,9.897 1.773,16.015l-53.276,0c0.366,6.495 2.372,11.637 6.085,15.483c3.713,3.846 8.567,5.752 14.585,5.752c4.743,0 8.988,-1.13 12.668,-3.336c3.713,-2.25 6.428,-5.519 8.168,-9.797l9.288,3.801Z" style="fill:#fff;fill-rule:nonzero;"/><path d="M4235.321,1074.04l11.504,0l0,21.634c2.904,-6.849 6.716,-12.302 11.438,-16.347c4.677,-4.078 9.565,-6.118 14.574,-6.118c4.921,0 8.8,1.94 11.637,5.752c2.848,3.846 4.477,9.288 4.954,16.314c2.904,-6.761 6.716,-12.136 11.427,-16.081c4.688,-3.979 9.498,-5.985 14.452,-5.985c5.386,0 9.498,2.272 12.369,6.783c2.881,4.511 4.311,10.906 4.311,19.129l0,40.264l-11.36,0l0,-37.261c0,-5.852 -1.075,-10.396 -3.28,-13.643c-2.172,-3.236 -5.42,-4.843 -9.731,-4.843c-3.181,0 -6.384,1.075 -9.565,3.281c-3.214,2.205 -6.051,5.275 -8.489,9.321l0,43.146l-11.371,0l0,-37.261c0,-5.852 -1.108,-10.396 -3.314,-13.643c-2.172,-3.236 -5.42,-4.843 -9.698,-4.843c-3.314,0 -6.55,1.142 -9.797,3.414c-3.247,2.272 -6.118,5.486 -8.556,9.598l0,42.736l-11.504,0l0,-65.345Z" style="fill:#fff;fill-rule:nonzero;"/><path d="M3519.793,1193.891l11.36,0l0,65.334l-11.36,0l0,-65.334Zm-3.979,-24.649c0,-2.848 0.898,-5.187 2.671,-6.993c1.807,-1.84 4.145,-2.738 7.06,-2.738c2.937,0 5.242,0.898 6.982,2.738c1.74,1.807 2.604,4.145 2.604,6.993c0,3.004 -0.865,5.42 -2.604,7.259c-1.74,1.806 -4.046,2.737 -6.982,2.737c-2.915,0 -5.253,-0.931 -7.06,-2.737c-1.773,-1.84 -2.671,-4.256 -2.671,-7.259Z" style="fill:#fff;fill-rule:nonzero;"/><path d="M3550.892,1193.891l11.493,0l0,21.634c2.915,-6.86 6.727,-12.313 11.437,-16.358c4.688,-4.079 9.565,-6.118 14.585,-6.118c4.91,0 8.789,1.94 11.637,5.752c2.837,3.846 4.477,9.299 4.943,16.314c2.915,-6.749 6.727,-12.136 11.437,-16.081c4.688,-3.979 9.498,-5.985 14.452,-5.985c5.375,0 9.487,2.272 12.369,6.794c2.871,4.511 4.311,10.895 4.311,19.118l0,40.264l-11.371,0l0,-37.25c0,-5.852 -1.064,-10.396 -3.27,-13.643c-2.172,-3.247 -5.419,-4.854 -9.731,-4.854c-3.181,0 -6.395,1.075 -9.565,3.281c-3.214,2.205 -6.051,5.287 -8.501,9.332l0,43.135l-11.36,0l0,-37.25c0,-5.852 -1.108,-10.396 -3.314,-13.643c-2.172,-3.247 -5.419,-4.854 -9.698,-4.854c-3.314,0 -6.55,1.142 -9.797,3.414c-3.247,2.272 -6.118,5.486 -8.567,9.598l0,42.736l-11.493,0l0,-65.334Z" style="fill:#fff;fill-rule:nonzero;"/><path d="M3676.484,1236.893c2.006,4.112 5.054,7.481 9.166,10.13c4.112,2.638 8.756,3.979 13.976,3.979c5.22,0 9.365,-1.873 12.535,-5.619c3.148,-3.746 4.721,-9.797 4.721,-18.22c0,-8.135 -1.707,-14.22 -5.087,-18.298c-3.38,-4.045 -7.991,-6.085 -13.809,-6.085c-2.305,0 -4.511,0.332 -6.65,0.975c-2.139,0.632 -4.156,1.496 -6.018,2.604c-1.873,1.075 -3.58,2.339 -5.087,3.746c-1.507,1.441 -2.738,2.937 -3.746,4.611l0,22.177Zm-1.64,-43.002l1.64,20.127c2.438,-6.218 6.118,-11.305 10.939,-15.283c4.843,-3.946 10.429,-5.952 16.713,-5.952c3.58,0 6.861,0.731 9.864,2.206c3.015,1.441 5.619,3.613 7.791,6.484c2.206,2.882 3.945,6.461 5.22,10.706c1.275,4.245 1.907,9.199 1.907,14.851c0,6.118 -0.632,11.26 -1.973,15.483c-1.341,4.212 -3.081,7.614 -5.287,10.263c-2.172,2.638 -4.743,4.577 -7.658,5.752c-2.904,1.197 -6.018,1.807 -9.321,1.807c-3.28,0 -6.395,-0.61 -9.298,-1.74c-2.915,-1.142 -5.619,-2.749 -8.091,-4.788c-2.449,-2.039 -4.622,-4.444 -6.495,-7.182c-1.873,-2.749 -3.303,-5.719 -4.311,-8.9l0,48.056l-11.504,0l0,-91.889l9.864,0Z" style="fill:#fff;fill-rule:nonzero;"/><path d="M3749.887,1226.486c0,7.492 2.039,13.244 6.118,17.323c4.045,4.045 9.631,6.085 16.746,6.085c7.06,0 12.612,-2.039 16.724,-6.151c4.112,-4.112 6.151,-9.864 6.151,-17.256c0,-7.215 -2.006,-12.867 -6.085,-16.913c-4.045,-4.078 -9.664,-6.096 -16.791,-6.096c-7.381,0 -13.034,2.117 -16.979,6.362c-3.912,4.245 -5.885,9.797 -5.885,16.647Zm-11.371,0.133c0,-5.275 0.831,-10.03 2.471,-14.175c1.64,-4.145 3.979,-7.658 6.993,-10.529c3.004,-2.882 6.617,-5.087 10.828,-6.594c4.178,-1.496 8.833,-2.272 13.942,-2.272c5.12,0 9.797,0.776 13.987,2.272c4.212,1.507 7.791,3.713 10.762,6.594c2.948,2.87 5.253,6.384 6.927,10.529c1.64,4.145 2.438,8.9 2.438,14.175c0,5.287 -0.798,10.041 -2.438,14.253c-1.674,4.211 -3.979,7.725 -6.927,10.595c-2.97,2.882 -6.55,5.087 -10.762,6.583c-4.189,1.507 -8.866,2.283 -13.987,2.283c-5.109,0 -9.764,-0.776 -13.942,-2.283c-4.212,-1.496 -7.825,-3.702 -10.828,-6.583c-3.014,-2.871 -5.353,-6.384 -6.993,-10.595c-1.64,-4.212 -2.471,-8.966 -2.471,-14.253Z" style="fill:#fff;fill-rule:nonzero;"/><path d="M3821.405,1193.891l11.371,0l0,23.839c1.275,-3.68 2.815,-6.993 4.588,-9.997c1.762,-3.015 3.846,-5.619 6.151,-7.825c2.338,-2.172 4.877,-3.879 7.625,-5.054c2.704,-1.208 5.686,-1.807 8.889,-1.807l6.561,0l0,11.371l-13.544,0c-4.655,0 -8.667,1.241 -12.014,3.646c-3.303,2.405 -6.085,5.952 -8.257,10.595l0,40.564l-11.371,0l0,-65.334Z" style="fill:#fff;fill-rule:nonzero;"/><path d="M3889.189,1202.913l-16.846,0l0,-9.022l5.309,0c4.212,0 7.559,-1.408 10.097,-4.189c2.516,-2.771 3.746,-7.548 3.746,-14.308l0,-6.993l11.371,0l0,9.731c0,5.386 -1.407,9.299 -4.178,11.704c-2.771,2.449 -7.226,3.779 -13.344,4.056l40.531,0l0,9.022l-25.313,0l0,35.211c0,4.655 0.864,7.924 2.637,9.797c1.806,1.873 4.888,2.815 9.265,2.815l12.879,0l0,7.658c-1.64,0.632 -3.846,1.13 -6.594,1.496c-2.738,0.377 -5.752,0.576 -9.021,0.576c-2.849,0 -5.486,-0.366 -7.958,-1.042c-2.449,-0.698 -4.622,-1.807 -6.495,-3.347c-1.873,-1.563 -3.369,-3.602 -4.444,-6.118c-1.108,-2.505 -1.64,-5.619 -1.64,-9.354l0,-37.693Z" style="fill:#fff;fill-rule:nonzero;"/><path d="M3983.56,1224.99l-19.196,0c-6.184,0 -10.573,0.997 -13.144,3.003c-2.538,2.006 -3.846,5.154 -3.846,9.432c0,8.224 4.921,12.335 14.685,12.335c5.375,0 9.731,-0.997 13.067,-3.003c3.347,-2.006 6.151,-4.389 8.434,-7.126l0,-14.641Zm-0.133,-6.594c0,-10.13 -5.852,-15.217 -17.556,-15.217c-8.766,0 -16.259,0.842 -22.443,2.483l-1.374,-9.166c3.547,-1.009 7.725,-1.806 12.546,-2.405c4.777,-0.61 9.465,-0.909 14.009,-0.909c8.323,0 14.785,2.006 19.395,5.985c4.611,3.945 6.916,9.831 6.916,17.589l0,42.603l-9.731,0l-1.496,-18.896c-1.009,2.383 -2.416,4.755 -4.245,7.126c-1.84,2.372 -3.99,4.478 -6.461,6.351c-2.438,1.873 -5.176,3.414 -8.19,4.588c-3.015,1.197 -6.251,1.807 -9.731,1.807c-6.018,0 -10.773,-1.674 -14.242,-4.954c-3.48,-3.281 -5.22,-8.257 -5.22,-14.918c0,-7.581 2.305,-13.167 6.927,-16.713c4.61,-3.58 10.695,-5.353 18.287,-5.353l22.609,0Z" style="fill:#fff;fill-rule:nonzero;"/><path d="M4051.51,1255.779l7.791,0l-12.047,9.997c4.655,-0.166 8.467,0.643 11.437,2.416c2.981,1.773 4.444,4.843 4.444,9.254c0,3.646 -1.297,6.528 -3.912,8.7c-2.571,2.139 -6.084,3.214 -10.462,3.214c-2.904,0 -5.519,-0.344 -7.791,-1.042c-2.305,-0.665 -4.212,-1.408 -5.752,-2.106c-1.74,-1.009 -3.247,-2.106 -4.544,-3.314l2.604,-6.55c1.84,1.64 3.879,2.937 6.118,3.979c2.206,0.997 4.588,1.507 7.027,1.507c2.671,0 4.744,-0.576 6.251,-1.674c1.507,-1.075 2.239,-2.682 2.239,-4.788c0,-4.112 -4.045,-6.151 -12.169,-6.151l-2.338,-2.738l11.105,-10.706Zm21.9,-15.317c-2.372,6.827 -6.251,11.881 -11.704,15.051c-5.419,3.214 -11.903,4.821 -19.362,4.821c-4.954,0 -9.432,-0.743 -13.51,-2.205c-4.045,-1.474 -7.525,-3.613 -10.396,-6.461c-2.882,-2.804 -5.12,-6.317 -6.727,-10.529c-1.607,-4.178 -2.405,-9.033 -2.405,-14.519c0,-5.475 0.798,-10.329 2.405,-14.508c1.607,-4.212 3.846,-7.692 6.727,-10.496c2.871,-2.782 6.351,-4.888 10.396,-6.362c4.079,-1.474 8.556,-2.205 13.51,-2.205c8.29,0 15.25,1.94 20.791,5.819c5.586,3.912 9.265,9.664 11.105,17.356l-11.238,0c-1.529,-4.212 -4.112,-7.392 -7.658,-9.531c-3.569,-2.139 -7.825,-3.214 -12.734,-3.214c-7.126,0 -12.579,2.017 -16.381,6.096c-3.779,4.045 -5.686,9.698 -5.686,16.913c0,7.758 1.973,13.61 5.885,17.522c3.945,3.946 9.321,5.885 16.181,5.885c5.187,0 9.598,-1.097 13.144,-3.336c3.547,-2.25 6.084,-5.686 7.525,-10.34l10.13,4.245Z" style="fill:#fff;fill-rule:nonzero;"/><path d="M4132.46,1224.99l-19.196,0c-6.184,0 -10.562,0.997 -13.144,3.003c-2.538,2.006 -3.846,5.154 -3.846,9.432c0,8.224 4.921,12.335 14.685,12.335c5.386,0 9.731,-0.997 13.078,-3.003c3.336,-2.006 6.151,-4.389 8.423,-7.126l0,-14.641Zm-37.25,-43.977c-0.1,-2.206 0.1,-4.345 0.598,-6.45c0.51,-2.073 1.275,-3.946 2.338,-5.519c1.042,-1.607 2.383,-2.882 3.979,-3.846c1.574,-0.975 3.447,-1.441 5.52,-1.441c2.383,0 4.256,0.532 5.552,1.64c1.341,1.097 2.649,2.206 3.912,3.281c1.009,0.997 2.073,1.973 3.148,2.87c1.097,0.942 2.438,1.374 3.979,1.374c2.206,0 3.68,-0.875 4.444,-2.682c0.776,-1.762 1.275,-3.746 1.441,-5.952l7.115,0c0.211,1.74 0.078,3.613 -0.332,5.619c-0.399,2.006 -1.13,3.879 -2.206,5.553c-1.031,1.707 -2.405,3.081 -4.078,4.178c-1.707,1.108 -3.746,1.64 -6.118,1.64c-2.638,0 -4.677,-0.598 -6.151,-1.84c-1.474,-1.23 -2.748,-2.405 -3.846,-3.513c-1.175,-1.064 -2.172,-1.973 -3.015,-2.638c-0.798,-0.698 -1.873,-1.042 -3.136,-1.042c-2.106,0 -3.547,0.842 -4.323,2.549c-0.765,1.674 -1.33,3.746 -1.696,6.218l-7.126,0Zm37.117,37.383c0,-10.13 -5.852,-15.217 -17.556,-15.217c-8.766,0 -16.247,0.842 -22.443,2.483l-1.363,-9.166c3.547,-1.009 7.725,-1.806 12.535,-2.405c4.788,-0.61 9.465,-0.909 14.009,-0.909c8.335,0 14.785,2.006 19.395,5.985c4.622,3.945 6.927,9.831 6.927,17.589l0,42.603l-9.731,0l-1.507,-18.896c-0.997,2.383 -2.405,4.755 -4.245,7.126c-1.84,2.372 -3.979,4.478 -6.45,6.351c-2.449,1.873 -5.187,3.414 -8.201,4.588c-3.003,1.197 -6.251,1.807 -9.731,1.807c-6.018,0 -10.762,-1.674 -14.242,-4.954c-3.48,-3.281 -5.22,-8.257 -5.22,-14.918c0,-7.581 2.317,-13.167 6.927,-16.713c4.611,-3.58 10.695,-5.353 18.287,-5.353l22.609,0Z" style="fill:#fff;fill-rule:nonzero;"/><path d="M4169.411,1226.486c0,7.492 2.039,13.244 6.118,17.323c4.045,4.045 9.631,6.085 16.757,6.085c7.049,0 12.601,-2.039 16.713,-6.151c4.112,-4.112 6.151,-9.864 6.151,-17.256c0,-7.215 -2.006,-12.867 -6.084,-16.913c-4.046,-4.078 -9.664,-6.096 -16.78,-6.096c-7.392,0 -13.045,2.117 -16.99,6.362c-3.912,4.245 -5.885,9.797 -5.885,16.647Zm-11.371,0.133c0,-5.275 0.842,-10.03 2.471,-14.175c1.64,-4.145 3.99,-7.658 6.993,-10.529c3.014,-2.882 6.616,-5.087 10.839,-6.594c4.178,-1.496 8.822,-2.272 13.942,-2.272c5.109,0 9.797,0.776 13.975,2.272c4.212,1.507 7.791,3.713 10.762,6.594c2.948,2.87 5.253,6.384 6.927,10.529c1.64,4.145 2.438,8.9 2.438,14.175c0,5.287 -0.798,10.041 -2.438,14.253c-1.674,4.211 -3.979,7.725 -6.927,10.595c-2.97,2.882 -6.55,5.087 -10.762,6.583c-4.178,1.507 -8.866,2.283 -13.975,2.283c-5.12,0 -9.764,-0.776 -13.942,-2.283c-4.223,-1.496 -7.825,-3.702 -10.839,-6.583c-3.004,-2.871 -5.353,-6.384 -6.993,-10.595c-1.629,-4.212 -2.471,-8.966 -2.471,-14.253Z" style="fill:#fff;fill-rule:nonzero;"/><path d="M4325.004,1222.507c-0.466,-6.384 -2.538,-11.404 -6.218,-15.073c-3.713,-3.646 -8.501,-5.453 -14.319,-5.453c-3.104,0 -5.985,0.465 -8.623,1.43c-2.671,0.942 -4.987,2.316 -6.993,4.123c-2.006,1.762 -3.613,3.912 -4.81,6.417c-1.175,2.505 -1.873,5.353 -2.039,8.556l43.002,0Zm7.658,19.029c-2.072,6.051 -5.752,10.662 -11.005,13.909c-5.253,3.247 -11.571,4.888 -18.996,4.888c-4.643,0 -8.889,-0.743 -12.734,-2.205c-3.812,-1.474 -7.126,-3.646 -9.831,-6.528c-2.749,-2.87 -4.888,-6.384 -6.384,-10.595c-1.507,-4.212 -2.283,-8.999 -2.283,-14.386c0,-5.375 0.842,-10.163 2.483,-14.308c1.64,-4.145 3.946,-7.658 6.916,-10.462c2.981,-2.848 6.495,-5.021 10.54,-6.528c4.078,-1.496 8.523,-2.272 13.366,-2.272c4.754,0 9.033,0.776 12.878,2.272c3.813,1.507 7.06,3.779 9.731,6.86c2.637,3.037 4.643,6.849 6.018,11.438c1.374,4.544 1.973,9.897 1.773,16.015l-53.265,0c0.366,6.484 2.372,11.637 6.084,15.483c3.713,3.846 8.556,5.752 14.574,5.752c4.755,0 9,-1.142 12.679,-3.347c3.713,-2.239 6.417,-5.519 8.157,-9.797l9.298,3.813Z" style="fill:#fff;fill-rule:nonzero;"/><path d="M3612.114,1342.359c-0.466,-6.395 -2.538,-11.404 -6.218,-15.084c-3.713,-3.646 -8.501,-5.453 -14.319,-5.453c-3.103,0 -5.985,0.465 -8.622,1.441c-2.671,0.931 -4.987,2.305 -6.993,4.112c-2.006,1.773 -3.602,3.912 -4.81,6.417c-1.175,2.516 -1.873,5.353 -2.039,8.567l43.002,0Zm7.658,19.029c-2.072,6.051 -5.752,10.662 -11.005,13.909c-5.242,3.236 -11.571,4.877 -18.985,4.877c-4.655,0 -8.9,-0.731 -12.745,-2.206c-3.812,-1.474 -7.126,-3.646 -9.831,-6.517c-2.738,-2.882 -4.888,-6.395 -6.384,-10.606c-1.507,-4.211 -2.283,-8.988 -2.283,-14.375c0,-5.386 0.842,-10.163 2.483,-14.308c1.64,-4.156 3.945,-7.658 6.916,-10.473c2.981,-2.837 6.495,-5.01 10.54,-6.517c4.078,-1.507 8.523,-2.272 13.377,-2.272c4.743,0 9.021,0.765 12.867,2.272c3.812,1.507 7.06,3.779 9.731,6.849c2.649,3.048 4.655,6.86 6.018,11.438c1.374,4.555 1.973,9.897 1.773,16.015l-53.265,0c0.366,6.495 2.372,11.637 6.084,15.483c3.713,3.846 8.556,5.752 14.574,5.752c4.755,0 9,-1.13 12.679,-3.336c3.713,-2.25 6.417,-5.519 8.157,-9.797l9.298,3.813Z" style="fill:#fff;fill-rule:nonzero;"/><path d="M3641.307,1379.077l-14.508,0l27.253,-33.138l-24.25,-32.207l14.519,0l10.795,15.882c0.466,0.643 1.108,1.64 1.94,2.948c0.798,1.33 1.64,2.704 2.471,4.178c0.809,1.474 1.541,2.904 2.172,4.311c0.643,1.408 0.975,2.505 0.975,3.214l0.399,0c0,-0.709 0.332,-1.806 0.975,-3.214c0.632,-1.408 1.363,-2.837 2.172,-4.311c0.831,-1.474 1.64,-2.848 2.471,-4.178c0.831,-1.308 1.408,-2.305 1.773,-2.948l10.828,-15.882l14.519,0l-24.105,32.207l27.109,33.138l-14.508,0l-13.975,-18.365c-0.366,-0.632 -0.975,-1.574 -1.773,-2.804c-0.831,-1.241 -1.64,-2.549 -2.471,-3.912c-0.809,-1.374 -1.541,-2.682 -2.106,-3.979c-0.609,-1.275 -0.909,-2.272 -0.909,-3.015l-0.399,0c0,0.743 -0.299,1.74 -0.909,3.015c-0.598,1.297 -1.297,2.605 -2.106,3.979c-0.831,1.363 -1.662,2.671 -2.471,3.912c-0.831,1.23 -1.474,2.172 -1.906,2.804l-13.976,18.365Z" style="fill:#fff;fill-rule:nonzero;"/><path d="M3720.594,1356.733c2.006,4.112 5.043,7.492 9.154,10.13c4.112,2.649 8.767,3.979 13.987,3.979c5.209,0 9.354,-1.873 12.535,-5.608c3.148,-3.746 4.71,-9.808 4.71,-18.232c0,-8.124 -1.696,-14.208 -5.076,-18.287c-3.381,-4.045 -7.991,-6.085 -13.809,-6.085c-2.317,0 -4.522,0.332 -6.661,0.964c-2.139,0.632 -4.145,1.507 -6.018,2.605c-1.873,1.075 -3.58,2.35 -5.076,3.746c-1.507,1.441 -2.748,2.948 -3.746,4.622l0,22.166Zm-1.64,-43.002l1.64,20.127c2.438,-6.218 6.118,-11.294 10.928,-15.272c4.854,-3.946 10.44,-5.952 16.724,-5.952c3.58,0 6.849,0.731 9.864,2.205c3.004,1.43 5.619,3.602 7.791,6.484c2.206,2.871 3.946,6.45 5.22,10.695c1.264,4.256 1.906,9.199 1.906,14.851c0,6.118 -0.643,11.271 -1.973,15.483c-1.341,4.211 -3.081,7.625 -5.286,10.263c-2.172,2.649 -4.754,4.588 -7.658,5.752c-2.915,1.208 -6.018,1.807 -9.332,1.807c-3.281,0 -6.384,-0.598 -9.299,-1.74c-2.904,-1.13 -5.619,-2.737 -8.09,-4.777c-2.438,-2.039 -4.611,-4.444 -6.484,-7.193c-1.873,-2.738 -3.314,-5.719 -4.311,-8.889l0,48.045l-11.504,0l0,-91.889l9.864,0Z" style="fill:#fff;fill-rule:nonzero;"/><path d="M3793.986,1346.338c0,7.492 2.039,13.244 6.118,17.323c4.056,4.045 9.631,6.085 16.758,6.085c7.06,0 12.612,-2.039 16.724,-6.151c4.111,-4.112 6.151,-9.864 6.151,-17.256c0,-7.226 -2.006,-12.878 -6.085,-16.924c-4.045,-4.079 -9.664,-6.085 -16.791,-6.085c-7.393,0 -13.045,2.106 -16.99,6.351c-3.912,4.245 -5.885,9.797 -5.885,16.658Zm-11.371,0.133c0,-5.287 0.843,-10.03 2.483,-14.175c1.64,-4.156 3.979,-7.658 6.982,-10.54c3.015,-2.87 6.628,-5.076 10.839,-6.583c4.178,-1.507 8.822,-2.272 13.943,-2.272c5.12,0 9.797,0.765 13.975,2.272c4.212,1.507 7.791,3.713 10.773,6.583c2.937,2.882 5.242,6.384 6.916,10.54c1.64,4.145 2.449,8.888 2.449,14.175c0,5.287 -0.809,10.03 -2.449,14.242c-1.674,4.212 -3.979,7.725 -6.916,10.606c-2.981,2.871 -6.561,5.076 -10.773,6.583c-4.178,1.507 -8.855,2.272 -13.975,2.272c-5.12,0 -9.764,-0.765 -13.943,-2.272c-4.211,-1.507 -7.825,-3.713 -10.839,-6.583c-3.003,-2.882 -5.342,-6.395 -6.982,-10.606c-1.64,-4.211 -2.483,-8.955 -2.483,-14.242Z" style="fill:#fff;fill-rule:nonzero;"/><path d="M3865.515,1313.731l11.371,0l0,23.839c1.274,-3.68 2.804,-6.982 4.577,-9.997c1.773,-3.004 3.846,-5.619 6.151,-7.825c2.349,-2.172 4.887,-3.879 7.625,-5.043c2.715,-1.208 5.686,-1.806 8.9,-1.806l6.55,0l0,11.36l-13.543,0c-4.644,0 -8.656,1.241 -12.003,3.646c-3.314,2.416 -6.084,5.952 -8.257,10.606l0,40.564l-11.371,0l0,-65.345Z" style="fill:#fff;fill-rule:nonzero;"/><path d="M3933.299,1322.764l-16.857,0l0,-9.033l5.32,0c4.212,0 7.558,-1.408 10.096,-4.178c2.505,-2.771 3.746,-7.559 3.746,-14.308l0,-6.993l11.371,0l0,9.731c0,5.386 -1.408,9.299 -4.178,11.704c-2.782,2.438 -7.226,3.779 -13.344,4.045l40.53,0l0,9.033l-25.313,0l0,35.211c0,4.644 0.865,7.924 2.638,9.797c1.806,1.873 4.888,2.804 9.265,2.804l12.867,0l0,7.658c-1.629,0.632 -3.846,1.142 -6.584,1.507c-2.737,0.366 -5.752,0.565 -9.032,0.565c-2.837,0 -5.475,-0.366 -7.958,-1.031c-2.438,-0.709 -4.61,-1.807 -6.483,-3.347c-1.873,-1.574 -3.38,-3.613 -4.444,-6.118c-1.108,-2.505 -1.64,-5.619 -1.64,-9.365l0,-37.682Z" style="fill:#fff;fill-rule:nonzero;"/><path d="M4027.659,1344.83l-19.196,0c-6.184,0 -10.562,1.009 -13.133,3.015c-2.549,2.006 -3.846,5.142 -3.846,9.421c0,8.235 4.91,12.346 14.674,12.346c5.386,0 9.731,-1.009 13.078,-3.015c3.347,-2.006 6.151,-4.378 8.423,-7.115l0,-14.652Zm-0.133,-6.583c0,-10.141 -5.852,-15.217 -17.556,-15.217c-8.755,0 -16.248,0.831 -22.432,2.471l-1.374,-9.166c3.546,-0.998 7.725,-1.807 12.535,-2.405c4.788,-0.598 9.465,-0.898 14.02,-0.898c8.323,0 14.773,2.006 19.395,5.985c4.61,3.946 6.916,9.831 6.916,17.589l0,42.603l-9.731,0l-1.507,-18.896c-0.997,2.372 -2.405,4.743 -4.245,7.126c-1.84,2.372 -3.979,4.478 -6.45,6.351c-2.438,1.873 -5.187,3.414 -8.19,4.577c-3.014,1.208 -6.262,1.807 -9.731,1.807c-6.018,0 -10.772,-1.674 -14.252,-4.943c-3.469,-3.281 -5.209,-8.268 -5.209,-14.918c0,-7.592 2.305,-13.178 6.916,-16.724c4.622,-3.569 10.706,-5.342 18.298,-5.342l22.598,0Z" style="fill:#fff;fill-rule:nonzero;"/><path d="M4095.609,1375.63l7.791,0l-12.036,9.997c4.644,-0.166 8.456,0.632 11.438,2.405c2.97,1.773 4.444,4.854 4.444,9.265c0,3.646 -1.308,6.517 -3.912,8.689c-2.571,2.15 -6.085,3.214 -10.462,3.214c-2.915,0 -5.52,-0.332 -7.791,-1.031c-2.305,-0.676 -4.212,-1.408 -5.752,-2.117c-1.74,-0.998 -3.247,-2.106 -4.555,-3.303l2.615,-6.561c1.84,1.64 3.879,2.948 6.118,3.979c2.206,1.009 4.577,1.507 7.027,1.507c2.671,0 4.744,-0.565 6.251,-1.674c1.507,-1.064 2.239,-2.671 2.239,-4.777c0,-4.112 -4.045,-6.151 -12.169,-6.151l-2.35,-2.749l11.105,-10.695Zm21.9,-15.317c-2.372,6.816 -6.251,11.87 -11.704,15.051c-5.409,3.203 -11.903,4.81 -19.362,4.81c-4.943,0 -9.42,-0.731 -13.51,-2.206c-4.045,-1.474 -7.514,-3.613 -10.396,-6.45c-2.871,-2.815 -5.109,-6.328 -6.716,-10.54c-1.607,-4.178 -2.416,-9.022 -2.416,-14.508c0,-5.486 0.809,-10.329 2.416,-14.519c1.607,-4.211 3.846,-7.692 6.716,-10.496c2.882,-2.771 6.351,-4.876 10.396,-6.351c4.09,-1.474 8.567,-2.205 13.51,-2.205c8.301,0 15.25,1.939 20.803,5.818c5.586,3.912 9.265,9.664 11.105,17.356l-11.238,0c-1.541,-4.223 -4.112,-7.392 -7.658,-9.531c-3.58,-2.139 -7.825,-3.214 -12.734,-3.214c-7.126,0 -12.579,2.006 -16.392,6.085c-3.779,4.045 -5.686,9.698 -5.686,16.924c0,7.758 1.973,13.61 5.885,17.522c3.945,3.945 9.332,5.885 16.192,5.885c5.176,0 9.598,-1.108 13.133,-3.347c3.546,-2.239 6.084,-5.686 7.525,-10.329l10.13,4.245Z" style="fill:#fff;fill-rule:nonzero;"/><path d="M4176.57,1344.83l-19.196,0c-6.184,0 -10.573,1.009 -13.144,3.015c-2.538,2.006 -3.846,5.142 -3.846,9.421c0,8.235 4.921,12.346 14.685,12.346c5.375,0 9.731,-1.009 13.067,-3.015c3.347,-2.006 6.162,-4.378 8.434,-7.115l0,-14.652Zm-37.25,-43.977c-0.1,-2.205 0.099,-4.345 0.598,-6.45c0.499,-2.072 1.274,-3.945 2.338,-5.519c1.042,-1.607 2.372,-2.871 3.979,-3.846c1.574,-0.964 3.447,-1.43 5.519,-1.43c2.372,0 4.245,0.532 5.553,1.629c1.33,1.108 2.638,2.217 3.912,3.281c0.997,1.009 2.073,1.973 3.136,2.882c1.108,0.931 2.449,1.363 3.979,1.363c2.217,0 3.68,-0.865 4.455,-2.671c0.765,-1.773 1.263,-3.746 1.441,-5.952l7.115,0c0.2,1.74 0.066,3.613 -0.332,5.619c-0.399,2.006 -1.142,3.879 -2.206,5.553c-1.042,1.696 -2.405,3.07 -4.079,4.178c-1.707,1.097 -3.746,1.64 -6.118,1.64c-2.649,0 -4.688,-0.61 -6.162,-1.84c-1.463,-1.241 -2.737,-2.416 -3.846,-3.513c-1.164,-1.075 -2.172,-1.973 -3.003,-2.638c-0.798,-0.709 -1.873,-1.042 -3.148,-1.042c-2.106,0 -3.535,0.831 -4.311,2.538c-0.765,1.674 -1.341,3.746 -1.707,6.218l-7.115,0Zm37.117,37.394c0,-10.141 -5.852,-15.217 -17.556,-15.217c-8.766,0 -16.259,0.831 -22.443,2.471l-1.374,-9.166c3.546,-0.998 7.725,-1.807 12.546,-2.405c4.777,-0.598 9.465,-0.898 14.009,-0.898c8.323,0 14.785,2.006 19.395,5.985c4.61,3.946 6.927,9.831 6.927,17.589l0,42.603l-9.731,0l-1.507,-18.896c-1.009,2.372 -2.405,4.743 -4.245,7.126c-1.84,2.372 -3.979,4.478 -6.461,6.351c-2.438,1.873 -5.176,3.414 -8.19,4.577c-3.004,1.208 -6.251,1.807 -9.731,1.807c-6.018,0 -10.761,-1.674 -14.242,-4.943c-3.48,-3.281 -5.22,-8.268 -5.22,-14.918c0,-7.592 2.305,-13.178 6.927,-16.724c4.61,-3.569 10.695,-5.342 18.287,-5.342l22.609,0Z" style="fill:#fff;fill-rule:nonzero;"/><path d="M4213.521,1346.338c0,7.492 2.039,13.244 6.118,17.323c4.046,4.045 9.631,6.085 16.747,6.085c7.06,0 12.612,-2.039 16.724,-6.151c4.112,-4.112 6.151,-9.864 6.151,-17.256c0,-7.226 -2.006,-12.878 -6.085,-16.924c-4.045,-4.079 -9.664,-6.085 -16.791,-6.085c-7.381,0 -13.034,2.106 -16.979,6.351c-3.912,4.245 -5.885,9.797 -5.885,16.658Zm-11.371,0.133c0,-5.287 0.831,-10.03 2.472,-14.175c1.64,-4.156 3.979,-7.658 6.993,-10.54c3.003,-2.87 6.617,-5.076 10.828,-6.583c4.178,-1.507 8.833,-2.272 13.942,-2.272c5.12,0 9.797,0.765 13.987,2.272c4.212,1.507 7.791,3.713 10.762,6.583c2.948,2.882 5.253,6.384 6.927,10.54c1.629,4.145 2.438,8.888 2.438,14.175c0,5.287 -0.809,10.03 -2.438,14.242c-1.674,4.212 -3.979,7.725 -6.927,10.606c-2.97,2.871 -6.55,5.076 -10.762,6.583c-4.189,1.507 -8.866,2.272 -13.987,2.272c-5.109,0 -9.764,-0.765 -13.942,-2.272c-4.212,-1.507 -7.825,-3.713 -10.828,-6.583c-3.015,-2.882 -5.353,-6.395 -6.993,-10.606c-1.64,-4.211 -2.472,-8.955 -2.472,-14.242Z" style="fill:#fff;fill-rule:nonzero;"/><rect x="4278.722" y="1379.077" width="57.82" height="10.529" style="fill:#fff;fill-rule:nonzero;"/></svg>