<?xml version="1.0" encoding="UTF-8" standalone="no"?>
<!DOCTYPE svg PUBLIC "-//W3C//DTD SVG 1.1//EN" "http://www.w3.org/Graphics/SVG/1.1/DTD/svg11.dtd">
<svg width="100%" height="100%" viewBox="0 0 5423 1113" version="1.1" xmlns="http://www.w3.org/2000/svg" xmlns:xlink="http://www.w3.org/1999/xlink" xml:space="preserve" xmlns:serif="http://www.serif.com/" style="fill-rule:evenodd;clip-rule:evenodd;stroke-linejoin:round;stroke-miterlimit:2;">
    <g transform="matrix(1,0,0,1,-10277.001667,-6859.0175)">
        <g transform="matrix(4.166667,0,0,4.166667,9000,5062.5)">
            <g transform="matrix(0.677875,0,0,0.677875,436.394447,597.274258)">
                <path d="M0,-8.523C0,-8.526 -0.003,-8.526 -0.003,-8.526C-13.046,-16.086 -27.569,-19.919 -43.163,-19.919L-105.715,-19.919C-115.772,-19.919 -125.033,-22.285 -133.244,-26.949C-141.477,-31.621 -148.128,-38.102 -153.009,-46.214C-157.872,-54.275 -160.337,-63.187 -160.337,-72.698C-160.337,-82.201 -157.877,-91.041 -153.025,-98.98C-148.133,-106.993 -141.461,-113.493 -133.197,-118.295C-124.988,-123.064 -115.741,-125.482 -105.715,-125.482L21.597,-125.482C24.554,-125.482 26.952,-127.88 26.952,-130.837L26.952,-151.443C26.952,-154.4 24.554,-156.797 21.597,-156.797L-105.715,-156.797C-121.317,-156.797 -135.838,-152.965 -148.876,-145.404C-161.872,-137.864 -172.347,-127.647 -180.015,-115.035C-187.736,-102.345 -191.649,-88.099 -191.649,-72.698C-191.649,-57.556 -187.744,-43.326 -180.042,-30.408C-172.363,-17.514 -161.798,-7.211 -148.638,0.214C-135.495,7.634 -121.053,11.396 -105.715,11.396L-43.163,11.396C-33.373,11.396 -24.178,13.819 -15.838,18.596C-7.49,23.385 -0.837,29.866 3.937,37.853C8.685,45.806 11.093,54.664 11.093,64.18C11.093,73.691 8.685,82.549 3.94,90.499C-0.844,98.504 -7.446,104.988 -15.684,109.775C-23.877,114.541 -33.124,116.959 -43.163,116.959L-167.163,116.959C-170.12,116.959 -172.517,119.357 -172.517,122.313L-172.517,142.92C-172.517,145.877 -170.12,148.274 -167.163,148.274L-43.163,148.274C-27.809,148.274 -13.354,144.444 -0.204,136.891C12.92,129.357 23.469,119.066 31.153,106.308C38.863,93.5 42.774,79.325 42.774,64.18C42.774,49.038 38.863,34.863 31.15,22.044C23.472,9.299 12.991,-0.986 0,-8.523" style="fill:rgb(219,158,22);fill-rule:nonzero;"/>
            </g>
        </g>
        <g transform="matrix(4.166667,0,0,4.166667,9000,5062.5)">
            <g transform="matrix(0.677875,0,0,0.677875,553.796888,676.558303)">
                <path d="M0,-242.442L73.592,-242.442C83.657,-242.442 92.988,-240.071 101.331,-235.396C109.681,-230.722 116.397,-224.348 121.289,-216.458C126.128,-208.649 128.58,-199.757 128.58,-190.029L128.58,-53.151C128.58,-43.655 126.063,-34.756 121.098,-26.704C116.078,-18.557 109.341,-11.99 101.072,-7.185C92.876,-2.419 83.629,-0.001 73.592,-0.001L0,-0.001C-10.042,-0.001 -19.289,-2.419 -27.485,-7.187C-35.736,-11.98 -42.4,-18.529 -47.294,-26.662C-52.157,-34.722 -54.622,-43.634 -54.622,-53.151L-54.622,-189.292C-54.622,-199.036 -52.162,-208 -47.31,-215.94C-42.418,-223.953 -35.746,-230.452 -27.482,-235.255C-19.273,-240.024 -10.026,-242.442 0,-242.442M117.085,-262.565C104.052,-269.992 89.542,-273.757 73.958,-273.757L0,-273.757C-15.603,-273.757 -30.123,-269.924 -43.161,-262.364C-56.172,-254.816 -66.659,-244.46 -74.324,-231.59C-82.029,-218.669 -85.935,-204.437 -85.935,-189.292L-85.935,-53.151C-85.935,-38.006 -82.029,-23.773 -74.327,-10.855C-66.651,2.031 -56.094,12.389 -42.957,19.932C-29.812,27.484 -15.359,31.315 0,31.315L73.958,31.315C89.312,31.315 103.767,27.484 116.917,19.932C130.047,12.392 140.601,2.036 148.285,-10.855C155.989,-23.783 159.895,-38.014 159.895,-53.151L159.895,-190.029C159.895,-205.166 155.984,-219.341 148.272,-232.165C140.585,-244.923 130.094,-255.15 117.085,-262.565" style="fill:rgb(219,158,22);fill-rule:nonzero;"/>
            </g>
        </g>
        <g transform="matrix(4.166667,0,0,4.166667,9000,5062.5)">
            <g transform="matrix(0.677875,0,0,0.677875,828.662823,512.212618)">
                <path d="M0,242.442L-169.793,242.442L-169.793,-25.96C-169.793,-28.917 -172.191,-31.315 -175.147,-31.315L-195.751,-31.315C-198.708,-31.315 -201.106,-28.917 -201.106,-25.96L-201.106,257.365C-201.106,261.953 -199.479,266 -196.415,269.056C-193.349,272.131 -189.43,273.757 -185.082,273.757L0,273.757C2.957,273.757 5.354,271.36 5.354,268.403L5.354,247.796C5.354,244.839 2.957,242.442 0,242.442" style="fill:rgb(219,158,22);fill-rule:nonzero;"/>
            </g>
        </g>
        <g transform="matrix(4.166667,0,0,4.166667,9000,5062.5)">
            <g transform="matrix(0.677875,0,0,0.677875,1010.492596,697.785955)">
                <path d="M0,-305.072L-20.973,-305.072C-23.929,-305.072 -26.327,-302.675 -26.327,-299.718L-26.327,-84.466C-26.327,-74.957 -28.792,-66.045 -33.655,-57.974C-38.552,-49.849 -45.271,-43.302 -53.629,-38.515C-61.948,-33.739 -71.14,-31.315 -80.949,-31.315L-141.294,-31.315C-151.346,-31.315 -160.664,-33.739 -168.988,-38.518C-177.351,-43.31 -184.07,-49.854 -188.957,-57.977C-193.819,-66.037 -196.285,-74.949 -196.285,-84.466L-196.285,-299.718C-196.285,-302.675 -198.682,-305.072 -201.639,-305.072L-222.243,-305.072C-225.2,-305.072 -227.597,-302.675 -227.597,-299.718L-227.597,-84.094C-227.597,-68.685 -223.683,-54.442 -215.963,-41.765C-208.298,-29.143 -197.751,-18.921 -184.619,-11.383C-171.474,-3.831 -156.897,0 -141.294,0L-80.949,0C-65.352,0 -50.774,-3.831 -37.624,-11.383C-24.499,-18.918 -13.95,-29.208 -6.267,-41.966C1.443,-54.774 5.354,-68.949 5.354,-84.094L5.354,-299.718C5.354,-302.675 2.957,-305.072 0,-305.072" style="fill:rgb(219,158,22);fill-rule:nonzero;"/>
            </g>
        </g>
        <g transform="matrix(4.166667,0,0,4.166667,9000,5062.5)">
            <g transform="matrix(0.677875,0,0,0.677875,1191.076436,697.785955)">
                <path d="M0,-305.072L-220.405,-305.072C-223.362,-305.072 -225.759,-302.675 -225.759,-299.718L-225.759,-279.111C-225.759,-276.154 -223.362,-273.757 -220.405,-273.757L-125.676,-273.757L-125.676,-5.355C-125.676,-2.398 -123.278,0 -120.321,0L-99.715,0C-96.758,0 -94.361,-2.398 -94.361,-5.355L-94.361,-273.757L0,-273.757C2.957,-273.757 5.354,-276.154 5.354,-279.111L5.354,-299.718C5.354,-302.675 2.957,-305.072 0,-305.072" style="fill:rgb(219,158,22);fill-rule:nonzero;"/>
            </g>
        </g>
        <g transform="matrix(4.166667,0,0,4.166667,9000,5062.5)">
            <g transform="matrix(0.677875,0,0,0.677875,1226.244315,697.785955)">
                <path d="M0,-305.072L-20.604,-305.072C-23.561,-305.072 -25.958,-302.675 -25.958,-299.718L-25.958,-5.355C-25.958,-2.398 -23.561,0 -20.604,0L0,0C2.957,0 5.354,-2.398 5.354,-5.355L5.354,-299.718C5.354,-302.675 2.957,-305.072 0,-305.072" style="fill:rgb(219,158,22);fill-rule:nonzero;"/>
            </g>
        </g>
        <g transform="matrix(4.166667,0,0,4.166667,9000,5062.5)">
            <g transform="matrix(0.677875,0,0,0.677875,1397.644576,690.099871)">
                <path d="M0,-282.544C-0.008,-282.547 -0.013,-282.552 -0.021,-282.554C-12.928,-289.867 -27.242,-293.632 -42.562,-293.744C-43.846,-293.522 -45.359,-293.192 -46.374,-292.188C-47.385,-291.185 -47.955,-289.817 -47.955,-288.39L-47.955,-267.778C-47.955,-264.853 -45.608,-262.468 -42.682,-262.424C-32.886,-262.277 -23.83,-259.911 -15.783,-255.402C-7.331,-250.636 -0.614,-244.257 4.201,-236.406C9.064,-228.609 11.529,-219.726 11.529,-210.006L11.529,-73.151C11.529,-63.653 9.006,-54.743 4.029,-46.672C-0.991,-38.537 -7.731,-31.98 -16.01,-27.18C-24.327,-22.335 -33.305,-19.982 -43.459,-19.982L-117.08,-19.982C-127.14,-19.982 -136.371,-22.401 -144.549,-27.19C-152.771,-31.93 -159.443,-38.471 -164.381,-46.633C-169.234,-54.654 -171.694,-63.577 -171.694,-73.151L-171.694,-209.255C-171.694,-219.169 -169.307,-227.888 -164.395,-235.909C-159.456,-243.974 -152.779,-250.468 -144.502,-255.242C-136.515,-259.958 -127.443,-262.374 -117.534,-262.424C-114.588,-262.44 -112.206,-264.832 -112.206,-267.778L-112.206,-288.39C-112.206,-289.812 -112.774,-291.177 -113.78,-292.183C-114.787,-293.185 -115.987,-293.885 -117.579,-293.744C-132.999,-293.689 -147.359,-289.841 -160.232,-282.319C-173.221,-274.834 -183.704,-264.487 -191.393,-251.561C-199.106,-238.596 -203.014,-224.364 -203.014,-209.255L-203.014,-73.151C-203.014,-58.042 -199.106,-43.81 -191.393,-30.845C-183.715,-17.933 -173.153,-7.561 -160.016,-0.029C-146.912,7.516 -132.465,11.341 -117.08,11.341L-43.137,11.341C-27.772,11.341 -13.312,7.516 -0.149,-0.029C12.936,-7.564 23.49,-17.927 31.229,-30.845C38.905,-43.752 42.797,-57.985 42.797,-73.151L42.797,-210.006C42.797,-225.2 38.899,-239.37 31.21,-252.126C23.508,-264.868 13.009,-275.101 0,-282.544" style="fill:rgb(247,245,240);fill-rule:nonzero;"/>
            </g>
        </g>
        <g transform="matrix(4.166667,0,0,4.166667,9000,5062.5)">
            <g transform="matrix(0.677875,0,0,0.677875,1604.370458,697.975083)">
                <path d="M0,-305.351L-20.973,-305.351C-23.929,-305.351 -26.327,-302.954 -26.327,-299.997L-26.327,-64.465L-189.027,-298.091C-191.563,-302.067 -195.383,-304.554 -200.096,-305.291C-201.226,-305.463 -202.264,-305.584 -203.401,-305.456C-204.808,-305.395 -206.198,-305.134 -207.542,-304.677C-207.819,-304.585 -208.091,-304.475 -208.512,-304.295C-210.081,-303.631 -211.398,-302.815 -212.557,-301.79C-213.814,-300.674 -214.855,-299.322 -215.738,-297.665C-217.014,-295.273 -217.662,-292.59 -217.662,-289.696L-217.662,-5.634C-217.662,-2.677 -215.265,-0.279 -212.308,-0.279L-191.336,-0.279C-188.379,-0.279 -185.981,-2.677 -185.981,-5.634L-185.981,-240.457L-23.286,-7.179C-20.758,-3.192 -17.001,-0.703 -12.447,0.019C-11.542,0.165 -10.659,0.233 -9.796,0.233C-9.597,0.233 -9.388,0.22 -9.174,0.194C-7.778,0.136 -6.387,-0.128 -5.054,-0.58C-4.776,-0.674 -4.507,-0.781 -4.086,-0.957C-2.536,-1.608 -1.216,-2.397 -0.047,-3.378C3.488,-6.353 5.354,-10.567 5.354,-15.568L5.354,-299.997C5.354,-302.954 2.957,-305.351 0,-305.351" style="fill:rgb(247,245,240);fill-rule:nonzero;"/>
            </g>
        </g>
        <g transform="matrix(4.166667,0,0,4.166667,9000,5062.5)">
            <g transform="matrix(0.677875,0,0,0.677875,1336.354178,431.1642)">
                <path d="M0,213.955L20.614,213.955C23.571,213.955 25.969,211.558 25.969,208.601L25.969,5.354C25.969,2.397 23.571,0 20.614,0L0,0C-2.957,0 -5.354,2.397 -5.354,5.354L-5.354,208.601C-5.354,211.558 -2.957,213.955 0,213.955" style="fill:rgb(247,245,240);fill-rule:nonzero;"/>
            </g>
        </g>
    </g>
</svg>
