<?xml version="1.0" encoding="UTF-8" standalone="no"?>
<!DOCTYPE svg PUBLIC "-//W3C//DTD SVG 1.1//EN" "http://www.w3.org/Graphics/SVG/1.1/DTD/svg11.dtd">
<svg width="100%" height="100%" viewBox="0 0 328 116" version="1.1" xmlns="http://www.w3.org/2000/svg" xmlns:xlink="http://www.w3.org/1999/xlink" xml:space="preserve" xmlns:serif="http://www.serif.com/" style="fill-rule:evenodd;clip-rule:evenodd;stroke-linejoin:round;stroke-miterlimit:2;">
    <g transform="matrix(1,0,0,1,-124.629392,-73.858002)">
        <path d="M232.292,89.107L225.527,89.107L225.527,84.521L227.534,84.521C229.254,84.521 230.63,83.917 231.661,82.713C232.693,81.509 233.209,79.419 233.209,76.438L233.209,73.858L238.999,73.858L238.999,77.985C238.999,80.164 238.408,81.769 237.222,82.801C236.036,83.833 234.126,84.406 231.489,84.521L248.515,84.521L248.515,89.107L238.082,89.107L238.082,103.151C238.082,104.91 238.426,106.141 239.114,106.847C239.802,107.556 241.024,107.909 242.783,107.909L248.286,107.909L248.286,111.922C247.559,112.23 246.596,112.456 245.392,112.61C244.189,112.761 242.858,112.839 241.407,112.839C240.221,112.839 239.087,112.697 237.997,112.411C236.908,112.121 235.943,111.657 235.101,111.005C234.259,110.356 233.583,109.505 233.067,108.452C232.551,107.402 232.292,106.096 232.292,104.527L232.292,89.107Z" style="fill:white;fill-rule:nonzero;"/>
        <path d="M279.242,104.24C278.249,107.146 276.587,109.294 274.255,110.688C271.922,112.085 269.153,112.782 265.942,112.782C263.839,112.782 261.911,112.474 260.152,111.865C258.393,111.255 256.903,110.344 255.681,109.14C254.456,107.936 253.503,106.44 252.815,104.642C252.127,102.846 251.783,100.783 251.783,98.451C251.783,96.119 252.127,94.064 252.815,92.287C253.503,90.51 254.456,89.019 255.681,87.815C256.903,86.611 258.393,85.706 260.152,85.094C261.911,84.481 263.839,84.177 265.942,84.177C269.536,84.177 272.526,85.037 274.915,86.756C277.302,88.476 278.859,91.017 279.586,94.381L273.968,94.438C273.319,92.757 272.324,91.496 270.987,90.654C269.65,89.813 268.006,89.393 266.057,89.393C263.305,89.393 261.193,90.187 259.724,91.771C258.252,93.358 257.515,95.545 257.515,98.336C257.515,101.431 258.278,103.742 259.808,105.272C261.338,106.802 263.42,107.565 266.057,107.565C268.045,107.565 269.735,107.128 271.132,106.247C272.526,105.369 273.509,104.011 274.083,102.177L279.242,104.24Z" style="fill:white;fill-rule:nonzero;"/>
        <path d="M191.574,133.126C188.202,143.008 181.366,151.301 172.564,156.562L172.564,142.493C172.564,137.305 168.358,133.099 163.17,133.099L155.328,133.099C150.306,133.099 146.234,129.027 146.234,124.004L146.234,101.78C148.62,103.488 153.933,104.439 156.612,104.439L172.564,104.439L172.564,81.004C181.328,86.242 188.144,94.486 191.53,104.313C191.595,104.36 191.642,104.393 191.707,104.439L215.082,104.44C215.194,104.44 215.264,104.35 215.264,104.239C215.264,91.201 204.694,80.631 191.656,80.631L172.608,80.631C172.583,80.631 172.584,80.659 172.564,80.666L172.564,80.631L163.78,80.631C144.973,80.631 128.172,93.823 125.15,112.387C121.264,136.254 139.659,156.908 162.768,156.908L172.564,156.908L172.564,156.9C172.584,156.907 172.583,156.935 172.608,156.935L191.654,156.935C204.698,156.935 215.274,146.355 215.264,133.308C215.264,133.209 215.182,133.126 215.082,133.126L191.574,133.126Z" style="fill:white;fill-rule:nonzero;"/>
        <path d="M279.849,140.576C279.399,141.026 278.92,141.469 278.413,141.901C277.903,142.332 277.342,142.71 276.72,143.029C276.099,143.349 275.396,143.603 274.605,143.79C273.818,143.98 272.934,144.073 271.956,144.073C268.233,144.073 266.374,142.55 266.374,139.505C266.374,137.964 266.833,136.826 267.756,136.093C268.676,135.36 270.3,134.995 272.632,134.995L279.849,134.995L279.849,140.576ZM274.436,121.236C272.445,121.236 270.432,121.369 268.402,121.632C266.374,121.894 264.642,122.232 263.215,122.645L263.837,127.156C265.038,126.818 266.419,126.565 267.979,126.396C269.539,126.227 271.202,126.142 272.97,126.142C277.517,126.142 279.792,128.022 279.792,131.781L271.054,131.781C269.512,131.781 268.094,131.96 266.797,132.315C265.499,132.674 264.389,133.239 263.469,134.008C262.548,134.777 261.824,135.746 261.299,136.911C260.771,138.075 260.509,139.487 260.509,141.141C260.509,143.883 261.194,145.932 262.567,147.287C263.939,148.638 265.828,149.317 268.233,149.317C269.588,149.317 270.876,149.07 272.098,148.584C273.317,148.095 274.436,147.456 275.45,146.665C276.467,145.878 277.36,144.984 278.129,143.986C278.898,142.993 279.493,141.985 279.906,140.972L280.582,148.922L285.545,148.922L285.545,131.104C285.545,127.871 284.577,125.418 282.64,123.744C280.703,122.072 277.969,121.236 274.436,121.236Z" style="fill:white;fill-rule:nonzero;"/>
        <path d="M305.872,122.027C304.689,122.552 303.636,123.276 302.713,124.196C301.793,125.116 300.975,126.197 300.263,127.44C299.548,128.68 298.966,129.995 298.513,131.386L298.513,121.517L292.762,121.517L292.762,148.865L298.513,148.865L298.513,131.837C299.264,130.258 300.251,129.046 301.473,128.2C302.695,127.355 304.228,126.93 306.068,126.93L312.045,126.93L312.045,121.236L309.734,121.236C308.343,121.236 307.055,121.499 305.872,122.027Z" style="fill:white;fill-rule:nonzero;"/>
        <path d="M325.631,119.827C326.796,118.811 327.381,117.233 327.381,115.09L327.381,111.029L321.685,111.029L321.685,113.567C321.685,116.499 321.178,118.557 320.164,119.743C319.147,120.926 317.796,121.517 316.103,121.517L314.13,121.517L314.13,126.028L320.783,126.028L320.783,141.195C320.783,142.737 321.036,144.025 321.543,145.06C322.053,146.092 322.72,146.928 323.546,147.567C324.373,148.207 325.324,148.668 326.395,148.949C327.466,149.23 328.582,149.371 329.75,149.371C331.177,149.371 332.483,149.296 333.666,149.145C334.852,148.997 335.799,148.771 336.514,148.469L336.514,144.523L331.101,144.523C329.373,144.523 328.169,144.176 327.493,143.479C326.817,142.785 326.479,141.572 326.479,139.843L326.479,126.028L336.741,126.028L336.741,121.517L319.995,121.517C322.587,121.405 324.467,120.841 325.631,119.827Z" style="fill:white;fill-rule:nonzero;"/>
        <path d="M358.733,121.179C357.604,121.179 356.506,121.405 355.435,121.855C354.361,122.307 353.329,122.947 352.333,123.774C351.335,124.601 350.423,125.569 349.597,126.676C348.77,127.787 348.055,129.018 347.454,130.369L347.454,121.517L341.704,121.517L341.704,148.865L347.454,148.865L347.454,130.822C348.432,129.395 349.551,128.284 350.81,127.494C352.068,126.707 353.356,126.311 354.672,126.311C356.515,126.311 357.915,126.951 358.874,128.227C359.831,129.507 360.311,131.271 360.311,133.528L360.311,148.865L366.007,148.865L366.007,131.951C366.007,128.529 365.376,125.88 364.118,124C362.857,122.12 361.062,121.179 358.733,121.179Z" style="fill:white;fill-rule:nonzero;"/>
        <path d="M376.039,133.19C376.265,130.822 377.167,128.96 378.745,127.609C380.323,126.254 382.279,125.578 384.611,125.578C386.865,125.578 388.705,126.236 390.135,127.551C391.562,128.867 392.392,130.746 392.615,133.19L376.039,133.19ZM396.873,129.947C396.326,128.013 395.491,126.396 394.365,125.098C393.237,123.801 391.855,122.823 390.22,122.166C388.584,121.508 386.771,121.179 384.78,121.179C382.749,121.179 380.888,121.49 379.198,122.111C377.505,122.73 376.039,123.641 374.799,124.845C373.559,126.049 372.59,127.524 371.893,129.271C371.2,131.018 370.853,133.003 370.853,135.221C370.853,137.475 371.169,139.487 371.809,141.252C372.449,143.02 373.342,144.496 374.488,145.678C375.635,146.864 377.008,147.766 378.604,148.385C380.203,149.006 381.977,149.317 383.932,149.317C387.052,149.317 389.713,148.647 391.912,147.314C394.112,145.98 395.66,144.016 396.562,141.421L391.882,139.56C391.206,141.252 390.162,142.532 388.753,143.394C387.344,144.26 385.736,144.692 383.932,144.692C381.678,144.692 379.835,143.98 378.408,142.55C376.977,141.123 376.172,139.167 375.982,136.684L397.521,136.684C397.636,134.129 397.419,131.884 396.873,129.947Z" style="fill:white;fill-rule:nonzero;"/>
        <path d="M416.044,122.027C414.861,122.552 413.808,123.276 412.885,124.196C411.964,125.116 411.147,126.197 410.435,127.44C409.72,128.68 409.137,129.995 408.685,131.386L408.685,121.517L402.934,121.517L402.934,148.865L408.685,148.865L408.685,131.837C409.436,130.258 410.423,129.046 411.645,128.2C412.867,127.355 414.399,126.93 416.24,126.93L422.217,126.93L422.217,121.236L419.906,121.236C418.515,121.236 417.226,121.499 416.044,122.027Z" style="fill:white;fill-rule:nonzero;"/>
        <path d="M450.129,135.981C448.738,134.684 446.312,133.791 442.854,133.302L436.597,132.457C434.904,132.231 433.61,131.818 432.707,131.217C431.805,130.617 431.353,129.884 431.353,129.018C431.353,128.565 431.464,128.143 431.691,127.747C431.917,127.355 432.291,126.996 432.819,126.676C433.344,126.36 434.041,126.103 434.904,125.916C435.77,125.729 436.841,125.635 438.12,125.635C441.014,125.635 443.108,126.133 444.405,127.129C445.702,128.125 446.351,129.337 446.351,130.766L451.369,130.766C451.369,129.413 451.088,128.152 450.524,126.987C449.96,125.822 449.133,124.809 448.044,123.943C446.951,123.077 445.582,122.401 443.925,121.912C442.272,121.423 440.356,121.179 438.175,121.179C434.002,121.179 430.891,121.894 428.842,123.321C426.794,124.751 425.771,126.631 425.771,128.96C425.771,131.027 426.504,132.738 427.97,134.093C429.437,135.444 431.896,136.386 435.356,136.911L441.219,137.755C443.286,138.057 444.707,138.479 445.476,139.026C446.248,139.572 446.632,140.257 446.632,141.083C446.632,141.572 446.502,142.043 446.239,142.492C445.974,142.945 445.533,143.34 444.912,143.678C444.293,144.016 443.467,144.278 442.432,144.466C441.397,144.656 440.112,144.749 438.57,144.749C435.525,144.749 433.308,144.233 431.917,143.198C430.526,142.163 429.829,140.896 429.829,139.391L424.812,139.391C424.812,140.782 425.113,142.079 425.714,143.283C426.314,144.487 427.189,145.528 428.336,146.412C429.482,147.296 430.909,147.99 432.62,148.499C434.331,149.006 436.316,149.26 438.57,149.26C443.192,149.26 446.623,148.509 448.861,147.003C451.097,145.5 452.216,143.527 452.216,141.083C452.216,138.977 451.519,137.279 450.129,135.981Z" style="fill:white;fill-rule:nonzero;"/>
        <path d="M250.041,141.462C249.591,142.908 248.997,144.102 248.264,145.041C247.53,145.982 246.704,146.667 245.783,147.098C244.863,147.533 243.952,147.747 243.05,147.747C242.296,147.747 241.544,147.644 240.793,147.439C240.042,147.231 239.384,146.92 238.82,146.507L238.82,127.451C239.42,126.772 240.144,126.265 240.992,125.927C241.837,125.589 242.655,125.42 243.445,125.42C245.512,125.42 247.241,126.389 248.632,128.323C250.023,130.26 250.716,132.9 250.716,136.246C250.716,138.276 250.493,140.014 250.041,141.462ZM254.947,125.562C253.933,124.452 252.747,123.586 251.395,122.967C250.041,122.346 248.592,122.038 247.054,122.038C245.249,122.038 243.614,122.46 242.148,123.305C240.681,124.15 239.571,125.1 238.82,126.153L238.82,122.464L230.651,122.466L230.651,124.403C231.06,124.403 233.189,124.445 233.189,125.701L233.189,159.644L238.82,159.644L238.82,147.862C239.571,148.462 240.512,148.942 241.641,149.298C242.766,149.654 243.931,149.835 245.135,149.835C246.752,149.835 248.339,149.488 249.899,148.791C251.459,148.097 252.859,147.098 254.102,145.804C255.342,144.507 256.346,142.938 257.116,141.094C257.888,139.254 258.273,137.166 258.273,134.837C258.273,132.918 257.972,131.171 257.372,129.593C256.769,128.012 255.96,126.669 254.947,125.562Z" style="fill:white;fill-rule:nonzero;"/>
        <path d="M374.917,162.346L373.185,162.346C372.627,162.346 372.232,162.437 371.999,162.618C371.77,162.799 371.652,163.082 371.652,163.468C371.652,164.211 372.096,164.582 372.977,164.582C373.463,164.582 373.855,164.491 374.157,164.31C374.458,164.129 374.712,163.915 374.917,163.668L374.917,162.346ZM374.905,161.752C374.905,160.837 374.377,160.379 373.321,160.379C372.53,160.379 371.854,160.454 371.296,160.602L371.173,159.775C371.492,159.685 371.869,159.612 372.304,159.558C372.735,159.504 373.158,159.477 373.568,159.477C374.319,159.477 374.902,159.658 375.318,160.017C375.734,160.373 375.943,160.904 375.943,161.604L375.943,165.448L375.065,165.448L374.929,163.743C374.838,163.957 374.712,164.171 374.546,164.386C374.38,164.6 374.187,164.79 373.963,164.959C373.743,165.128 373.496,165.267 373.224,165.372C372.953,165.481 372.66,165.535 372.346,165.535C371.803,165.535 371.375,165.384 371.061,165.089C370.747,164.793 370.59,164.343 370.59,163.743C370.59,163.058 370.798,162.554 371.215,162.234C371.631,161.912 372.18,161.752 372.865,161.752L374.905,161.752Z" style="fill:white;fill-rule:nonzero;"/>
        <path d="M378.362,161.109C378.362,161.314 378.468,161.492 378.679,161.64C378.887,161.788 379.192,161.893 379.587,161.951L381.045,162.135C381.778,162.243 382.294,162.434 382.596,162.711C382.897,162.986 383.048,163.342 383.048,163.779C383.048,164.298 382.807,164.717 382.324,165.04C381.841,165.36 381.102,165.52 380.106,165.52C379.627,165.52 379.204,165.469 378.833,165.36C378.462,165.255 378.151,165.107 377.901,164.917C377.647,164.727 377.457,164.503 377.331,164.25C377.204,163.993 377.14,163.722 377.14,163.432L378.055,163.432C378.055,163.788 378.221,164.087 378.556,164.328C378.887,164.573 379.406,164.693 380.106,164.693C380.477,164.693 380.785,164.669 381.033,164.618C381.28,164.57 381.476,164.503 381.627,164.416C381.775,164.328 381.88,164.229 381.947,164.12C382.013,164.008 382.046,163.891 382.046,163.767C382.046,163.577 381.953,163.411 381.769,163.272C381.582,163.133 381.247,163.028 380.761,162.965L379.364,162.765C378.631,162.66 378.115,162.458 377.813,162.165C377.512,161.872 377.361,161.516 377.361,161.097C377.361,160.611 377.581,160.216 378.025,159.911C378.465,159.606 379.132,159.453 380.031,159.453C380.508,159.453 380.924,159.507 381.28,159.615C381.633,159.721 381.929,159.866 382.164,160.047C382.399,160.228 382.574,160.442 382.689,160.69C382.804,160.937 382.861,161.206 382.861,161.492L381.935,161.492C381.935,161.329 381.899,161.172 381.823,161.021C381.748,160.874 381.633,160.744 381.476,160.632C381.319,160.524 381.12,160.436 380.879,160.373C380.634,160.312 380.345,160.282 380.007,160.282C379.702,160.282 379.446,160.303 379.234,160.349C379.023,160.394 378.854,160.457 378.721,160.536C378.589,160.614 378.498,160.702 378.444,160.801C378.39,160.901 378.362,161.003 378.362,161.109Z" style="fill:white;fill-rule:nonzero;"/>
        <path d="M385.061,161.109C385.061,161.314 385.166,161.492 385.377,161.64C385.586,161.788 385.89,161.893 386.286,161.951L387.743,162.135C388.476,162.243 388.992,162.434 389.294,162.711C389.595,162.986 389.746,163.342 389.746,163.779C389.746,164.298 389.505,164.717 389.022,165.04C388.539,165.36 387.8,165.52 386.804,165.52C386.325,165.52 385.902,165.469 385.531,165.36C385.16,165.255 384.849,165.107 384.599,164.917C384.345,164.727 384.155,164.503 384.029,164.25C383.902,163.993 383.839,163.722 383.839,163.432L384.753,163.432C384.753,163.788 384.919,164.087 385.254,164.328C385.586,164.573 386.104,164.693 386.804,164.693C387.176,164.693 387.483,164.669 387.731,164.618C387.978,164.57 388.174,164.503 388.325,164.416C388.473,164.328 388.579,164.229 388.645,164.12C388.711,164.008 388.744,163.891 388.744,163.767C388.744,163.577 388.651,163.411 388.467,163.272C388.28,163.133 387.945,163.028 387.459,162.965L386.062,162.765C385.329,162.66 384.813,162.458 384.511,162.165C384.21,161.872 384.059,161.516 384.059,161.097C384.059,160.611 384.279,160.216 384.723,159.911C385.163,159.606 385.83,159.453 386.729,159.453C387.206,159.453 387.622,159.507 387.978,159.615C388.331,159.721 388.627,159.866 388.862,160.047C389.097,160.228 389.273,160.442 389.387,160.69C389.502,160.937 389.559,161.206 389.559,161.492L388.633,161.492C388.633,161.329 388.597,161.172 388.521,161.021C388.446,160.874 388.331,160.744 388.174,160.632C388.017,160.524 387.818,160.436 387.577,160.373C387.332,160.312 387.043,160.282 386.705,160.282C386.4,160.282 386.144,160.303 385.932,160.349C385.721,160.394 385.552,160.457 385.42,160.536C385.287,160.614 385.196,160.702 385.142,160.801C385.088,160.901 385.061,161.003 385.061,161.109Z" style="fill:white;fill-rule:nonzero;"/>
        <path d="M395.467,162.123C395.424,161.546 395.237,161.094 394.906,160.762C394.571,160.433 394.139,160.27 393.614,160.27C393.334,160.27 393.074,160.312 392.836,160.4C392.594,160.484 392.386,160.608 392.205,160.771C392.024,160.931 391.879,161.124 391.771,161.35C391.665,161.577 391.602,161.833 391.587,162.123L395.467,162.123ZM396.158,163.839C395.971,164.386 395.639,164.802 395.165,165.095C394.691,165.387 394.121,165.535 393.451,165.535C393.032,165.535 392.649,165.469 392.302,165.336C391.958,165.203 391.659,165.007 391.415,164.748C391.167,164.488 390.974,164.171 390.838,163.791C390.703,163.411 390.633,162.98 390.633,162.494C390.633,162.008 390.709,161.577 390.856,161.202C391.004,160.828 391.213,160.512 391.481,160.258C391.75,160.002 392.066,159.806 392.431,159.67C392.8,159.534 393.201,159.465 393.638,159.465C394.067,159.465 394.453,159.534 394.8,159.67C395.144,159.806 395.437,160.011 395.678,160.288C395.916,160.563 396.097,160.907 396.221,161.32C396.345,161.73 396.399,162.213 396.381,162.765L391.575,162.765C391.608,163.351 391.789,163.815 392.124,164.162C392.459,164.509 392.896,164.681 393.439,164.681C393.868,164.681 394.251,164.579 394.583,164.38C394.918,164.177 395.162,163.882 395.319,163.496L396.158,163.839Z" style="fill:white;fill-rule:nonzero;"/>
        <path d="M398.384,161.109C398.384,161.314 398.49,161.492 398.701,161.64C398.909,161.788 399.214,161.893 399.609,161.951L401.067,162.135C401.8,162.243 402.316,162.434 402.617,162.711C402.919,162.986 403.07,163.342 403.07,163.779C403.07,164.298 402.829,164.717 402.346,165.04C401.863,165.36 401.124,165.52 400.128,165.52C399.649,165.52 399.226,165.469 398.855,165.36C398.484,165.255 398.173,165.107 397.923,164.917C397.669,164.727 397.479,164.503 397.352,164.25C397.226,163.993 397.162,163.722 397.162,163.432L398.077,163.432C398.077,163.788 398.243,164.087 398.577,164.328C398.909,164.573 399.428,164.693 400.128,164.693C400.499,164.693 400.807,164.669 401.055,164.618C401.302,164.57 401.498,164.503 401.649,164.416C401.797,164.328 401.902,164.229 401.969,164.12C402.035,164.008 402.068,163.891 402.068,163.767C402.068,163.577 401.975,163.411 401.791,163.272C401.604,163.133 401.269,163.028 400.783,162.965L399.386,162.765C398.653,162.66 398.137,162.458 397.835,162.165C397.533,161.872 397.383,161.516 397.383,161.097C397.383,160.611 397.603,160.216 398.046,159.911C398.487,159.606 399.154,159.453 400.053,159.453C400.53,159.453 400.946,159.507 401.302,159.615C401.655,159.721 401.951,159.866 402.186,160.047C402.421,160.228 402.596,160.442 402.711,160.69C402.826,160.937 402.883,161.206 402.883,161.492L401.957,161.492C401.957,161.329 401.92,161.172 401.845,161.021C401.77,160.874 401.655,160.744 401.498,160.632C401.341,160.524 401.142,160.436 400.901,160.373C400.656,160.312 400.367,160.282 400.029,160.282C399.724,160.282 399.467,160.303 399.256,160.349C399.045,160.394 398.876,160.457 398.743,160.536C398.611,160.614 398.52,160.702 398.466,160.801C398.411,160.901 398.384,161.003 398.384,161.109Z" style="fill:white;fill-rule:nonzero;"/>
        <path d="M405.082,161.109C405.082,161.314 405.188,161.492 405.399,161.64C405.607,161.788 405.912,161.893 406.307,161.951L407.765,162.135C408.498,162.243 409.014,162.434 409.316,162.711C409.617,162.986 409.768,163.342 409.768,163.779C409.768,164.298 409.527,164.717 409.044,165.04C408.561,165.36 407.822,165.52 406.826,165.52C406.347,165.52 405.924,165.469 405.553,165.36C405.182,165.255 404.871,165.107 404.621,164.917C404.367,164.727 404.177,164.503 404.051,164.25C403.924,163.993 403.86,163.722 403.86,163.432L404.775,163.432C404.775,163.788 404.941,164.087 405.276,164.328C405.607,164.573 406.126,164.693 406.826,164.693C407.197,164.693 407.505,164.669 407.753,164.618C408,164.57 408.196,164.503 408.347,164.416C408.495,164.328 408.6,164.229 408.667,164.12C408.733,164.008 408.766,163.891 408.766,163.767C408.766,163.577 408.673,163.411 408.489,163.272C408.302,163.133 407.967,163.028 407.481,162.965L406.084,162.765C405.351,162.66 404.835,162.458 404.533,162.165C404.232,161.872 404.081,161.516 404.081,161.097C404.081,160.611 404.301,160.216 404.745,159.911C405.185,159.606 405.852,159.453 406.751,159.453C407.228,159.453 407.644,159.507 408,159.615C408.353,159.721 408.649,159.866 408.884,160.047C409.119,160.228 409.294,160.442 409.409,160.69C409.524,160.937 409.581,161.206 409.581,161.492L408.655,161.492C408.655,161.329 408.619,161.172 408.543,161.021C408.468,160.874 408.353,160.744 408.196,160.632C408.039,160.524 407.84,160.436 407.599,160.373C407.354,160.312 407.065,160.282 406.727,160.282C406.422,160.282 406.166,160.303 405.954,160.349C405.743,160.394 405.574,160.457 405.441,160.536C405.309,160.614 405.218,160.702 405.164,160.801C405.11,160.901 405.082,161.003 405.082,161.109Z" style="fill:white;fill-rule:nonzero;"/>
        <path d="M411.669,162.482C411.669,163.158 411.853,163.677 412.221,164.045C412.586,164.41 413.09,164.594 413.733,164.594C414.369,164.594 414.87,164.41 415.241,164.039C415.612,163.668 415.796,163.149 415.796,162.482C415.796,161.83 415.615,161.32 415.247,160.955C414.882,160.587 414.375,160.406 413.733,160.406C413.066,160.406 412.556,160.596 412.2,160.979C411.847,161.362 411.669,161.863 411.669,162.482ZM410.643,162.494C410.643,162.017 410.718,161.589 410.866,161.215C411.014,160.84 411.225,160.524 411.497,160.264C411.768,160.005 412.094,159.806 412.474,159.67C412.852,159.534 413.271,159.465 413.733,159.465C414.194,159.465 414.617,159.534 414.994,159.67C415.374,159.806 415.697,160.005 415.965,160.264C416.231,160.524 416.439,160.84 416.59,161.215C416.738,161.589 416.81,162.017 416.81,162.494C416.81,162.971 416.738,163.399 416.59,163.779C416.439,164.159 416.231,164.476 415.965,164.736C415.697,164.995 415.374,165.194 414.994,165.33C414.617,165.466 414.194,165.535 413.733,165.535C413.271,165.535 412.852,165.466 412.474,165.33C412.094,165.194 411.768,164.995 411.497,164.736C411.225,164.476 411.014,164.159 410.866,163.779C410.718,163.399 410.643,162.971 410.643,162.494Z" style="fill:white;fill-rule:nonzero;"/>
        <path d="M418.123,159.54L419.148,159.54L419.148,161.691C419.263,161.359 419.402,161.061 419.562,160.789C419.722,160.518 419.909,160.282 420.117,160.083C420.328,159.887 420.557,159.733 420.805,159.628C421.049,159.519 421.318,159.465 421.607,159.465L422.199,159.465L422.199,160.49L420.977,160.49C420.557,160.49 420.195,160.602 419.894,160.819C419.595,161.037 419.345,161.356 419.148,161.776L419.148,165.436L418.123,165.436L418.123,159.54Z" style="fill:white;fill-rule:nonzero;"/>
        <path d="M423.421,159.54L424.447,159.54L424.447,165.436L423.421,165.436L423.421,159.54ZM423.062,157.316C423.062,157.06 423.143,156.849 423.303,156.686C423.466,156.52 423.677,156.438 423.94,156.438C424.205,156.438 424.413,156.52 424.57,156.686C424.727,156.849 424.806,157.06 424.806,157.316C424.806,157.588 424.727,157.805 424.57,157.971C424.413,158.134 424.205,158.219 423.94,158.219C423.677,158.219 423.466,158.134 423.303,157.971C423.143,157.805 423.062,157.588 423.062,157.316Z" style="fill:white;fill-rule:nonzero;"/>
        <path d="M430.243,162.346L428.511,162.346C427.953,162.346 427.557,162.437 427.325,162.618C427.096,162.799 426.978,163.082 426.978,163.468C426.978,164.211 427.421,164.582 428.303,164.582C428.788,164.582 429.181,164.491 429.482,164.31C429.784,164.129 430.037,163.915 430.243,163.668L430.243,162.346ZM430.23,161.752C430.23,160.837 429.702,160.379 428.646,160.379C427.856,160.379 427.18,160.454 426.622,160.602L426.498,159.775C426.818,159.685 427.195,159.612 427.63,159.558C428.061,159.504 428.484,159.477 428.894,159.477C429.645,159.477 430.227,159.658 430.644,160.017C431.06,160.373 431.268,160.904 431.268,161.604L431.268,165.448L430.39,165.448L430.255,163.743C430.164,163.957 430.037,164.171 429.871,164.386C429.705,164.6 429.512,164.79 429.289,164.959C429.069,165.128 428.821,165.267 428.55,165.372C428.278,165.481 427.986,165.535 427.672,165.535C427.129,165.535 426.7,165.384 426.387,165.089C426.073,164.793 425.916,164.343 425.916,163.743C425.916,163.058 426.124,162.554 426.54,162.234C426.957,161.912 427.506,161.752 428.191,161.752L430.23,161.752Z" style="fill:white;fill-rule:nonzero;"/>
        <path d="M440.576,162.123C440.534,161.546 440.347,161.094 440.015,160.762C439.68,160.433 439.249,160.27 438.724,160.27C438.443,160.27 438.184,160.312 437.945,160.4C437.704,160.484 437.496,160.608 437.315,160.771C437.134,160.931 436.989,161.124 436.88,161.35C436.775,161.577 436.711,161.833 436.696,162.123L440.576,162.123ZM441.267,163.839C441.08,164.386 440.748,164.802 440.275,165.095C439.801,165.387 439.231,165.535 438.561,165.535C438.141,165.535 437.758,165.469 437.411,165.336C437.067,165.203 436.769,165.007 436.524,164.748C436.277,164.488 436.084,164.171 435.948,163.791C435.812,163.411 435.743,162.98 435.743,162.494C435.743,162.008 435.818,161.577 435.966,161.202C436.114,160.828 436.322,160.512 436.591,160.258C436.859,160.002 437.176,159.806 437.541,159.67C437.909,159.534 438.31,159.465 438.748,159.465C439.176,159.465 439.563,159.534 439.91,159.67C440.253,159.806 440.546,160.011 440.788,160.288C441.026,160.563 441.207,160.907 441.331,161.32C441.454,161.73 441.509,162.213 441.491,162.765L436.684,162.765C436.717,163.351 436.898,163.815 437.233,164.162C437.568,164.509 438.006,164.681 438.549,164.681C438.977,164.681 439.36,164.579 439.692,164.38C440.027,164.177 440.272,163.882 440.429,163.496L441.267,163.839Z" style="fill:white;fill-rule:nonzero;"/>
        <path d="M442.776,159.54L443.814,159.54L443.814,161.492C444.076,160.874 444.42,160.382 444.846,160.017C445.268,159.649 445.709,159.465 446.161,159.465C446.605,159.465 446.955,159.64 447.211,159.984C447.468,160.331 447.615,160.822 447.658,161.456C447.92,160.846 448.264,160.361 448.689,160.005C449.112,159.646 449.546,159.465 449.993,159.465C450.479,159.465 450.85,159.67 451.109,160.077C451.369,160.484 451.498,161.061 451.498,161.803L451.498,165.436L450.473,165.436L450.473,162.074C450.473,161.546 450.376,161.136 450.177,160.843C449.981,160.551 449.688,160.406 449.299,160.406C449.012,160.406 448.723,160.503 448.436,160.702C448.146,160.901 447.89,161.178 447.67,161.543L447.67,165.436L446.644,165.436L446.644,162.074C446.644,161.546 446.544,161.136 446.345,160.843C446.149,160.551 445.856,160.406 445.47,160.406C445.171,160.406 444.879,160.509 444.586,160.714C444.293,160.919 444.034,161.209 443.814,161.58L443.814,165.436L442.776,165.436L442.776,159.54Z" style="fill:white;fill-rule:nonzero;"/>
        <path d="M378.215,170.354L379.24,170.354L379.24,176.249L378.215,176.249L378.215,170.354ZM377.856,168.13C377.856,167.873 377.937,167.662 378.097,167.499C378.26,167.333 378.471,167.252 378.734,167.252C378.999,167.252 379.207,167.333 379.364,167.499C379.521,167.662 379.599,167.873 379.599,168.13C379.599,168.401 379.521,168.619 379.364,168.785C379.207,168.948 378.999,169.032 378.734,169.032C378.471,169.032 378.26,168.948 378.097,168.785C377.937,168.619 377.856,168.401 377.856,168.13Z" style="fill:white;fill-rule:nonzero;"/>
        <path d="M381.021,170.354L382.058,170.354L382.058,172.306C382.321,171.687 382.665,171.195 383.09,170.83C383.513,170.462 383.953,170.278 384.406,170.278C384.849,170.278 385.199,170.453 385.456,170.797C385.712,171.144 385.86,171.636 385.902,172.269C386.165,171.66 386.509,171.174 386.934,170.818C387.357,170.459 387.791,170.278 388.238,170.278C388.723,170.278 389.094,170.483 389.354,170.891C389.613,171.298 389.743,171.874 389.743,172.616L389.743,176.249L388.717,176.249L388.717,172.888C388.717,172.36 388.621,171.95 388.422,171.657C388.226,171.364 387.933,171.219 387.544,171.219C387.257,171.219 386.967,171.316 386.681,171.515C386.391,171.714 386.135,171.992 385.914,172.357L385.914,176.249L384.889,176.249L384.889,172.888C384.889,172.36 384.789,171.95 384.59,171.657C384.394,171.364 384.101,171.219 383.715,171.219C383.416,171.219 383.124,171.322 382.831,171.527C382.538,171.732 382.279,172.022 382.058,172.393L382.058,176.249L381.021,176.249L381.021,170.354Z" style="fill:white;fill-rule:nonzero;"/>
        <path d="M392.353,174.234C392.534,174.605 392.809,174.909 393.18,175.148C393.551,175.386 393.97,175.507 394.441,175.507C394.912,175.507 395.286,175.338 395.572,175C395.856,174.662 395.998,174.116 395.998,173.356C395.998,172.622 395.844,172.073 395.539,171.705C395.234,171.34 394.818,171.156 394.293,171.156C394.085,171.156 393.886,171.186 393.693,171.244C393.5,171.301 393.318,171.379 393.15,171.479C392.981,171.576 392.827,171.69 392.691,171.817C392.555,171.947 392.444,172.082 392.353,172.233L392.353,174.234ZM392.205,170.354L392.353,172.17C392.573,171.609 392.905,171.15 393.34,170.791C393.777,170.435 394.281,170.254 394.848,170.254C395.171,170.254 395.467,170.32 395.738,170.453C396.01,170.583 396.245,170.779 396.441,171.038C396.64,171.298 396.797,171.621 396.912,172.004C397.027,172.387 397.084,172.834 397.084,173.344C397.084,173.896 397.027,174.36 396.906,174.741C396.785,175.121 396.628,175.428 396.429,175.667C396.233,175.905 396.001,176.08 395.738,176.186C395.476,176.294 395.195,176.349 394.897,176.349C394.601,176.349 394.32,176.294 394.058,176.192C393.795,176.089 393.551,175.944 393.328,175.76C393.107,175.576 392.911,175.359 392.742,175.112C392.573,174.864 392.444,174.596 392.353,174.309L392.353,178.645L391.315,178.645L391.315,170.354L392.205,170.354Z" style="fill:white;fill-rule:nonzero;"/>
        <path d="M398.976,173.295C398.976,173.971 399.16,174.49 399.528,174.858C399.893,175.223 400.397,175.407 401.039,175.407C401.676,175.407 402.177,175.223 402.548,174.852C402.919,174.481 403.103,173.962 403.103,173.295C403.103,172.644 402.922,172.134 402.554,171.769C402.189,171.401 401.682,171.219 401.039,171.219C400.373,171.219 399.863,171.41 399.507,171.793C399.154,172.176 398.976,172.677 398.976,173.295ZM397.95,173.307C397.95,172.831 398.025,172.402 398.173,172.028C398.321,171.654 398.532,171.337 398.804,171.078C399.075,170.818 399.401,170.619 399.781,170.483C400.158,170.348 400.578,170.278 401.039,170.278C401.501,170.278 401.923,170.348 402.301,170.483C402.681,170.619 403.004,170.818 403.272,171.078C403.538,171.337 403.746,171.654 403.897,172.028C404.045,172.402 404.117,172.831 404.117,173.307C404.117,173.784 404.045,174.213 403.897,174.593C403.746,174.973 403.538,175.29 403.272,175.549C403.004,175.809 402.681,176.008 402.301,176.143C401.923,176.279 401.501,176.349 401.039,176.349C400.578,176.349 400.158,176.279 399.781,176.143C399.401,176.008 399.075,175.809 398.804,175.549C398.532,175.29 398.321,174.973 398.173,174.593C398.025,174.213 397.95,173.784 397.95,173.307Z" style="fill:white;fill-rule:nonzero;"/>
        <path d="M405.429,170.354L406.455,170.354L406.455,172.505C406.57,172.173 406.709,171.874 406.869,171.603C407.028,171.331 407.216,171.096 407.424,170.897C407.635,170.701 407.864,170.547 408.112,170.441C408.356,170.332 408.625,170.278 408.914,170.278L409.506,170.278L409.506,171.304L408.284,171.304C407.864,171.304 407.502,171.416 407.2,171.633C406.902,171.85 406.651,172.17 406.455,172.589L406.455,176.249L405.429,176.249L405.429,170.354Z" style="fill:white;fill-rule:nonzero;"/>
        <path d="M411.545,171.168L410.025,171.168L410.025,170.354L410.504,170.354C410.884,170.354 411.186,170.227 411.415,169.976C411.642,169.726 411.753,169.295 411.753,168.685L411.753,168.054L412.779,168.054L412.779,168.932C412.779,169.418 412.652,169.771 412.402,169.988C412.152,170.209 411.75,170.329 411.198,170.354L414.855,170.354L414.855,171.168L412.571,171.168L412.571,174.345C412.571,174.765 412.649,175.06 412.809,175.229C412.972,175.398 413.25,175.483 413.645,175.483L414.807,175.483L414.807,176.174C414.659,176.231 414.46,176.276 414.212,176.309C413.965,176.343 413.693,176.361 413.398,176.361C413.141,176.361 412.903,176.328 412.68,176.267C412.459,176.204 412.263,176.104 412.094,175.965C411.925,175.824 411.79,175.64 411.693,175.413C411.593,175.187 411.545,174.906 411.545,174.569L411.545,171.168Z" style="fill:white;fill-rule:nonzero;"/>
        <path d="M420.06,173.16L418.328,173.16C417.77,173.16 417.374,173.25 417.142,173.431C416.913,173.612 416.795,173.896 416.795,174.282C416.795,175.024 417.239,175.395 418.12,175.395C418.605,175.395 418.998,175.305 419.299,175.124C419.601,174.943 419.854,174.728 420.06,174.481L420.06,173.16ZM420.048,172.565C420.048,171.651 419.52,171.192 418.464,171.192C417.673,171.192 416.997,171.268 416.439,171.416L416.315,170.589C416.635,170.498 417.012,170.426 417.447,170.372C417.878,170.317 418.301,170.29 418.711,170.29C419.462,170.29 420.045,170.471 420.461,170.83C420.877,171.186 421.085,171.717 421.085,172.417L421.085,176.261L420.207,176.261L420.072,174.556C419.981,174.771 419.854,174.985 419.689,175.199C419.523,175.413 419.329,175.603 419.106,175.772C418.886,175.941 418.639,176.08 418.367,176.186C418.095,176.294 417.803,176.349 417.489,176.349C416.946,176.349 416.517,176.198 416.204,175.902C415.89,175.606 415.733,175.157 415.733,174.556C415.733,173.872 415.941,173.368 416.358,173.048C416.774,172.725 417.323,172.565 418.008,172.565L420.048,172.565Z" style="fill:white;fill-rule:nonzero;"/>
        <path d="M426.191,175.938L426.894,175.938L425.807,176.84C426.227,176.825 426.571,176.898 426.839,177.058C427.108,177.218 427.24,177.495 427.24,177.893C427.24,178.222 427.123,178.482 426.887,178.678C426.655,178.871 426.338,178.968 425.943,178.968C425.681,178.968 425.445,178.937 425.24,178.874C425.032,178.814 424.86,178.747 424.721,178.684C424.564,178.593 424.428,178.494 424.311,178.385L424.546,177.794C424.712,177.942 424.896,178.059 425.098,178.153C425.297,178.243 425.512,178.289 425.732,178.289C425.973,178.289 426.16,178.237 426.296,178.138C426.432,178.041 426.498,177.896 426.498,177.706C426.498,177.335 426.133,177.151 425.4,177.151L425.189,176.904L426.191,175.938ZM428.167,174.556C427.953,175.172 427.603,175.628 427.111,175.914C426.622,176.204 426.037,176.349 425.364,176.349C424.917,176.349 424.513,176.282 424.145,176.15C423.78,176.017 423.466,175.824 423.207,175.567C422.947,175.314 422.745,174.997 422.6,174.617C422.455,174.24 422.383,173.802 422.383,173.307C422.383,172.813 422.455,172.375 422.6,171.998C422.745,171.618 422.947,171.304 423.207,171.051C423.466,170.8 423.78,170.61 424.145,170.477C424.513,170.344 424.917,170.278 425.364,170.278C426.112,170.278 426.74,170.453 427.24,170.803C427.744,171.156 428.076,171.675 428.242,172.369L427.228,172.369C427.09,171.989 426.857,171.702 426.537,171.509C426.215,171.316 425.831,171.219 425.388,171.219C424.745,171.219 424.253,171.401 423.91,171.769C423.569,172.134 423.397,172.644 423.397,173.295C423.397,173.995 423.575,174.523 423.928,174.876C424.284,175.232 424.769,175.407 425.388,175.407C425.856,175.407 426.254,175.308 426.574,175.106C426.894,174.903 427.123,174.593 427.253,174.173L428.167,174.556Z" style="fill:white;fill-rule:nonzero;"/>
        <path d="M433.495,173.16L431.763,173.16C431.205,173.16 430.81,173.25 430.577,173.431C430.348,173.612 430.23,173.896 430.23,174.282C430.23,175.024 430.674,175.395 431.555,175.395C432.041,175.395 432.433,175.305 432.735,175.124C433.036,174.943 433.29,174.728 433.495,174.481L433.495,173.16ZM430.134,169.192C430.125,168.993 430.143,168.8 430.188,168.61C430.234,168.423 430.303,168.254 430.399,168.112C430.493,167.967 430.614,167.852 430.758,167.765C430.9,167.677 431.069,167.635 431.256,167.635C431.471,167.635 431.64,167.683 431.757,167.783C431.878,167.882 431.996,167.982 432.11,168.079C432.201,168.169 432.297,168.257 432.394,168.338C432.493,168.423 432.614,168.462 432.753,168.462C432.952,168.462 433.085,168.383 433.154,168.22C433.224,168.061 433.269,167.882 433.284,167.683L433.926,167.683C433.945,167.84 433.933,168.009 433.896,168.19C433.86,168.371 433.794,168.54 433.697,168.691C433.604,168.845 433.48,168.969 433.329,169.068C433.175,169.168 432.991,169.216 432.777,169.216C432.539,169.216 432.355,169.162 432.222,169.05C432.089,168.939 431.974,168.833 431.875,168.733C431.769,168.637 431.679,168.555 431.603,168.495C431.531,168.432 431.434,168.401 431.32,168.401C431.13,168.401 431,168.477 430.93,168.631C430.861,168.782 430.81,168.969 430.777,169.192L430.134,169.192ZM433.483,172.565C433.483,171.651 432.955,171.192 431.899,171.192C431.108,171.192 430.433,171.268 429.874,171.416L429.751,170.589C430.071,170.498 430.448,170.426 430.882,170.372C431.314,170.317 431.736,170.29 432.146,170.29C432.898,170.29 433.48,170.471 433.896,170.83C434.313,171.186 434.521,171.717 434.521,172.417L434.521,176.261L433.643,176.261L433.507,174.556C433.417,174.771 433.29,174.985 433.124,175.199C432.958,175.413 432.765,175.603 432.542,175.772C432.321,175.941 432.074,176.08 431.802,176.186C431.531,176.294 431.238,176.349 430.924,176.349C430.381,176.349 429.953,176.198 429.639,175.902C429.325,175.606 429.168,175.157 429.168,174.556C429.168,173.872 429.377,173.368 429.793,173.048C430.209,172.725 430.758,172.565 431.443,172.565L433.483,172.565Z" style="fill:white;fill-rule:nonzero;"/>
        <path d="M436.829,173.295C436.829,173.971 437.013,174.49 437.381,174.858C437.746,175.223 438.25,175.407 438.893,175.407C439.529,175.407 440.03,175.223 440.401,174.852C440.772,174.481 440.956,173.962 440.956,173.295C440.956,172.644 440.775,172.134 440.407,171.769C440.042,171.401 439.535,171.219 438.893,171.219C438.226,171.219 437.716,171.41 437.36,171.793C437.007,172.176 436.829,172.677 436.829,173.295ZM435.803,173.307C435.803,172.831 435.879,172.402 436.026,172.028C436.174,171.654 436.386,171.337 436.657,171.078C436.929,170.818 437.254,170.619 437.635,170.483C438.012,170.348 438.431,170.278 438.893,170.278C439.354,170.278 439.777,170.348 440.154,170.483C440.534,170.619 440.857,170.818 441.125,171.078C441.391,171.337 441.599,171.654 441.75,172.028C441.898,172.402 441.97,172.831 441.97,173.307C441.97,173.784 441.898,174.213 441.75,174.593C441.599,174.973 441.391,175.29 441.125,175.549C440.857,175.809 440.534,176.008 440.154,176.143C439.777,176.279 439.354,176.349 438.893,176.349C438.431,176.349 438.012,176.279 437.635,176.143C437.254,176.008 436.929,175.809 436.657,175.549C436.386,175.29 436.174,174.973 436.026,174.593C435.879,174.213 435.803,173.784 435.803,173.307Z" style="fill:white;fill-rule:nonzero;"/>
        <path d="M450.868,172.936C450.826,172.36 450.639,171.907 450.307,171.576C449.972,171.247 449.54,171.084 449.015,171.084C448.735,171.084 448.475,171.126 448.237,171.213C447.996,171.298 447.787,171.422 447.606,171.585C447.425,171.744 447.28,171.938 447.172,172.164C447.066,172.39 447.003,172.647 446.988,172.936L450.868,172.936ZM451.559,174.653C451.372,175.199 451.04,175.615 450.566,175.908C450.092,176.201 449.522,176.349 448.852,176.349C448.433,176.349 448.05,176.282 447.703,176.15C447.359,176.017 447.06,175.821 446.816,175.561C446.568,175.302 446.375,174.985 446.24,174.605C446.104,174.225 446.034,173.793 446.034,173.307C446.034,172.822 446.11,172.39 446.258,172.016C446.406,171.642 446.614,171.325 446.882,171.072C447.151,170.815 447.468,170.619 447.833,170.483C448.201,170.348 448.602,170.278 449.039,170.278C449.468,170.278 449.854,170.348 450.201,170.483C450.545,170.619 450.838,170.824 451.079,171.102C451.317,171.376 451.498,171.72 451.622,172.134C451.746,172.544 451.8,173.027 451.782,173.579L446.976,173.579C447.009,174.164 447.19,174.629 447.525,174.976C447.86,175.323 448.297,175.495 448.84,175.495C449.269,175.495 449.652,175.392 449.984,175.193C450.319,174.991 450.563,174.695 450.72,174.309L451.559,174.653Z" style="fill:white;fill-rule:nonzero;"/>
        <path d="M386.545,183.75C386.503,183.173 386.316,182.721 385.984,182.389C385.649,182.06 385.217,181.897 384.692,181.897C384.412,181.897 384.152,181.939 383.914,182.027C383.673,182.111 383.464,182.235 383.283,182.398C383.102,182.558 382.958,182.751 382.849,182.977C382.743,183.204 382.68,183.46 382.665,183.75L386.545,183.75ZM387.236,185.467C387.049,186.013 386.717,186.429 386.243,186.722C385.77,187.014 385.199,187.162 384.53,187.162C384.11,187.162 383.727,187.096 383.38,186.963C383.036,186.83 382.737,186.634 382.493,186.375C382.246,186.115 382.052,185.798 381.917,185.418C381.781,185.038 381.711,184.607 381.711,184.121C381.711,183.635 381.787,183.204 381.935,182.83C382.083,182.455 382.291,182.139 382.559,181.885C382.828,181.629 383.145,181.433 383.51,181.297C383.878,181.161 384.279,181.092 384.717,181.092C385.145,181.092 385.531,181.161 385.878,181.297C386.222,181.433 386.515,181.638 386.756,181.915C386.995,182.19 387.176,182.534 387.299,182.947C387.423,183.358 387.477,183.84 387.459,184.392L382.653,184.392C382.686,184.978 382.867,185.442 383.202,185.789C383.537,186.136 383.974,186.308 384.517,186.308C384.946,186.308 385.329,186.206 385.661,186.007C385.996,185.804 386.24,185.509 386.397,185.123L387.236,185.467Z" style="fill:white;fill-rule:nonzero;"/>
        <path d="M389.179,187.063L387.87,187.063L390.329,184.073L388.141,181.167L389.451,181.167L390.425,182.6C390.467,182.658 390.525,182.748 390.6,182.866C390.672,182.986 390.748,183.11 390.823,183.243C390.896,183.376 390.962,183.505 391.019,183.632C391.077,183.759 391.107,183.858 391.107,183.922L391.143,183.922C391.143,183.858 391.173,183.759 391.231,183.632C391.288,183.505 391.354,183.376 391.427,183.243C391.502,183.11 391.575,182.986 391.65,182.866C391.725,182.748 391.777,182.658 391.81,182.6L392.787,181.167L394.097,181.167L391.922,184.073L394.368,187.063L393.059,187.063L391.798,185.406C391.765,185.349 391.71,185.264 391.638,185.153C391.563,185.041 391.49,184.923 391.415,184.8C391.342,184.676 391.276,184.558 391.225,184.441C391.17,184.326 391.143,184.236 391.143,184.169L391.107,184.169C391.107,184.236 391.08,184.326 391.025,184.441C390.971,184.558 390.908,184.676 390.835,184.8C390.76,184.923 390.685,185.041 390.612,185.153C390.537,185.264 390.479,185.349 390.44,185.406L389.179,187.063Z" style="fill:white;fill-rule:nonzero;"/>
        <path d="M396.333,185.047C396.514,185.418 396.788,185.723 397.159,185.961C397.53,186.2 397.95,186.32 398.421,186.32C398.891,186.32 399.265,186.151 399.552,185.814C399.836,185.476 399.977,184.929 399.977,184.169C399.977,183.436 399.824,182.887 399.519,182.519C399.214,182.154 398.798,181.97 398.273,181.97C398.064,181.97 397.865,182 397.672,182.057C397.479,182.114 397.298,182.193 397.129,182.292C396.96,182.389 396.806,182.504 396.671,182.63C396.535,182.76 396.423,182.896 396.333,183.047L396.333,185.047ZM396.185,181.167L396.333,182.983C396.553,182.422 396.885,181.964 397.319,181.605C397.757,181.249 398.261,181.068 398.828,181.068C399.151,181.068 399.446,181.134 399.718,181.267C399.989,181.396 400.225,181.592 400.421,181.852C400.62,182.111 400.777,182.434 400.892,182.817C401.006,183.201 401.064,183.647 401.064,184.157C401.064,184.709 401.006,185.174 400.886,185.554C400.765,185.934 400.608,186.242 400.409,186.48C400.213,186.719 399.98,186.894 399.718,186.999C399.455,187.108 399.175,187.162 398.876,187.162C398.58,187.162 398.3,187.108 398.037,187.005C397.775,186.903 397.53,186.758 397.307,186.574C397.087,186.39 396.891,186.173 396.722,185.925C396.553,185.678 396.423,185.409 396.333,185.123L396.333,189.458L395.295,189.458L395.295,181.167L396.185,181.167Z" style="fill:white;fill-rule:nonzero;"/>
        <path d="M402.955,184.109C402.955,184.785 403.139,185.304 403.507,185.672C403.873,186.037 404.376,186.221 405.019,186.221C405.656,186.221 406.157,186.037 406.528,185.666C406.899,185.295 407.083,184.776 407.083,184.109C407.083,183.457 406.902,182.947 406.534,182.582C406.169,182.214 405.662,182.033 405.019,182.033C404.352,182.033 403.842,182.223 403.486,182.606C403.133,182.989 402.955,183.49 402.955,184.109ZM401.929,184.121C401.929,183.644 402.005,183.216 402.153,182.842C402.301,182.467 402.512,182.151 402.783,181.891C403.055,181.632 403.381,181.433 403.761,181.297C404.138,181.161 404.557,181.092 405.019,181.092C405.481,181.092 405.903,181.161 406.28,181.297C406.66,181.433 406.983,181.632 407.252,181.891C407.517,182.151 407.725,182.467 407.876,182.842C408.024,183.216 408.097,183.644 408.097,184.121C408.097,184.598 408.024,185.026 407.876,185.406C407.725,185.786 407.517,186.103 407.252,186.363C406.983,186.622 406.66,186.821 406.28,186.957C405.903,187.093 405.481,187.162 405.019,187.162C404.557,187.162 404.138,187.093 403.761,186.957C403.381,186.821 403.055,186.622 402.783,186.363C402.512,186.103 402.301,185.786 402.153,185.406C402.005,185.026 401.929,184.598 401.929,184.121Z" style="fill:white;fill-rule:nonzero;"/>
        <path d="M409.409,181.167L410.435,181.167L410.435,183.318C410.55,182.986 410.688,182.688 410.848,182.416C411.008,182.145 411.195,181.909 411.403,181.71C411.615,181.514 411.844,181.36 412.091,181.255C412.336,181.146 412.604,181.092 412.894,181.092L413.485,181.092L413.485,182.117L412.263,182.117C411.844,182.117 411.482,182.229 411.18,182.446C410.881,182.664 410.631,182.983 410.435,183.403L410.435,187.063L409.409,187.063L409.409,181.167Z" style="fill:white;fill-rule:nonzero;"/>
        <path d="M415.525,181.982L414.004,181.982L414.004,181.167L414.484,181.167C414.864,181.167 415.166,181.04 415.395,180.79C415.621,180.54 415.733,180.108 415.733,179.499L415.733,178.868L416.759,178.868L416.759,179.746C416.759,180.232 416.632,180.585 416.382,180.802C416.131,181.022 415.73,181.143 415.178,181.167L418.835,181.167L418.835,181.982L416.551,181.982L416.551,185.159C416.551,185.578 416.629,185.874 416.789,186.043C416.952,186.212 417.23,186.296 417.625,186.296L418.786,186.296L418.786,186.987C418.639,187.044 418.439,187.09 418.192,187.123C417.945,187.156 417.673,187.174 417.377,187.174C417.121,187.174 416.883,187.141 416.659,187.081C416.439,187.017 416.243,186.918 416.074,186.779C415.905,186.637 415.769,186.453 415.673,186.227C415.573,186.001 415.525,185.72 415.525,185.382L415.525,181.982Z" style="fill:white;fill-rule:nonzero;"/>
        <path d="M424.039,183.973L422.307,183.973C421.749,183.973 421.354,184.064 421.122,184.245C420.892,184.426 420.775,184.709 420.775,185.095C420.775,185.838 421.218,186.209 422.099,186.209C422.585,186.209 422.977,186.118 423.279,185.937C423.581,185.756 423.834,185.542 424.039,185.295L424.039,183.973ZM424.027,183.379C424.027,182.464 423.499,182.006 422.443,182.006C421.653,182.006 420.977,182.081 420.419,182.229L420.295,181.402C420.615,181.312 420.992,181.239 421.426,181.185C421.858,181.131 422.28,181.104 422.691,181.104C423.442,181.104 424.024,181.285 424.441,181.644C424.857,182 425.065,182.531 425.065,183.231L425.065,187.075L424.187,187.075L424.051,185.37C423.961,185.584 423.834,185.798 423.668,186.013C423.502,186.227 423.309,186.417 423.086,186.586C422.866,186.755 422.618,186.894 422.347,186.999C422.075,187.108 421.782,187.162 421.469,187.162C420.926,187.162 420.497,187.011 420.183,186.716C419.87,186.42 419.713,185.97 419.713,185.37C419.713,184.685 419.921,184.181 420.337,183.861C420.754,183.539 421.303,183.379 421.988,183.379L424.027,183.379Z" style="fill:white;fill-rule:nonzero;"/>
        <path d="M430.17,186.752L430.873,186.752L429.787,187.654C430.206,187.639 430.55,187.711 430.819,187.871C431.087,188.031 431.22,188.309 431.22,188.707C431.22,189.036 431.102,189.295 430.867,189.491C430.635,189.685 430.318,189.781 429.923,189.781C429.66,189.781 429.425,189.751 429.22,189.688C429.012,189.627 428.84,189.561 428.701,189.497C428.544,189.407 428.408,189.307 428.29,189.199L428.526,188.607C428.692,188.755 428.876,188.873 429.078,188.966C429.277,189.057 429.491,189.102 429.712,189.102C429.953,189.102 430.14,189.051 430.276,188.951C430.412,188.855 430.478,188.71 430.478,188.52C430.478,188.149 430.113,187.965 429.38,187.965L429.168,187.717L430.17,186.752ZM432.146,185.37C431.932,185.985 431.582,186.441 431.09,186.728C430.602,187.017 430.016,187.162 429.343,187.162C428.897,187.162 428.493,187.096 428.124,186.963C427.759,186.83 427.446,186.637 427.186,186.381C426.927,186.127 426.725,185.81 426.58,185.43C426.435,185.053 426.362,184.616 426.362,184.121C426.362,183.626 426.435,183.189 426.58,182.811C426.725,182.431 426.927,182.117 427.186,181.864C427.446,181.614 427.759,181.424 428.124,181.291C428.493,181.158 428.897,181.092 429.343,181.092C430.092,181.092 430.719,181.267 431.22,181.617C431.724,181.97 432.056,182.489 432.222,183.183L431.208,183.183C431.069,182.802 430.837,182.516 430.517,182.323C430.194,182.13 429.811,182.033 429.368,182.033C428.725,182.033 428.233,182.214 427.889,182.582C427.548,182.947 427.376,183.457 427.376,184.109C427.376,184.809 427.554,185.337 427.907,185.69C428.263,186.046 428.749,186.221 429.368,186.221C429.835,186.221 430.234,186.121 430.553,185.919C430.873,185.717 431.102,185.406 431.232,184.987L432.146,185.37Z" style="fill:white;fill-rule:nonzero;"/>
        <path d="M437.475,183.973L435.743,183.973C435.185,183.973 434.789,184.064 434.557,184.245C434.328,184.426 434.21,184.709 434.21,185.095C434.21,185.838 434.654,186.209 435.535,186.209C436.02,186.209 436.413,186.118 436.714,185.937C437.016,185.756 437.27,185.542 437.475,185.295L437.475,183.973ZM434.114,180.005C434.105,179.806 434.123,179.613 434.168,179.423C434.213,179.236 434.283,179.067 434.379,178.925C434.473,178.78 434.593,178.666 434.738,178.578C434.88,178.491 435.049,178.449 435.236,178.449C435.45,178.449 435.619,178.497 435.737,178.596C435.857,178.696 435.975,178.796 436.09,178.892C436.18,178.983 436.277,179.07 436.373,179.152C436.473,179.236 436.594,179.275 436.732,179.275C436.932,179.275 437.064,179.197 437.134,179.034C437.203,178.874 437.248,178.696 437.264,178.497L437.906,178.497C437.924,178.654 437.912,178.823 437.876,179.004C437.84,179.185 437.773,179.354 437.677,179.505C437.583,179.658 437.46,179.782 437.309,179.882C437.155,179.981 436.971,180.03 436.757,180.03C436.518,180.03 436.334,179.975 436.201,179.864C436.069,179.752 435.954,179.646 435.854,179.547C435.749,179.45 435.658,179.369 435.583,179.309C435.511,179.245 435.414,179.215 435.299,179.215C435.109,179.215 434.98,179.29 434.91,179.444C434.841,179.595 434.789,179.782 434.756,180.005L434.114,180.005ZM437.463,183.379C437.463,182.464 436.935,182.006 435.879,182.006C435.088,182.006 434.412,182.081 433.854,182.229L433.73,181.402C434.05,181.312 434.427,181.239 434.862,181.185C435.293,181.131 435.716,181.104 436.126,181.104C436.877,181.104 437.46,181.285 437.876,181.644C438.292,182 438.501,182.531 438.501,183.231L438.501,187.075L437.623,187.075L437.487,185.37C437.396,185.584 437.27,185.798 437.104,186.013C436.938,186.227 436.745,186.417 436.521,186.586C436.301,186.755 436.054,186.894 435.782,186.999C435.511,187.108 435.218,187.162 434.904,187.162C434.361,187.162 433.933,187.011 433.619,186.716C433.305,186.42 433.148,185.97 433.148,185.37C433.148,184.685 433.356,184.181 433.773,183.861C434.189,183.539 434.738,183.379 435.423,183.379L437.463,183.379Z" style="fill:white;fill-rule:nonzero;"/>
        <path d="M440.809,184.109C440.809,184.785 440.993,185.304 441.361,185.672C441.726,186.037 442.23,186.221 442.872,186.221C443.509,186.221 444.01,186.037 444.381,185.666C444.752,185.295 444.936,184.776 444.936,184.109C444.936,183.457 444.755,182.947 444.387,182.582C444.022,182.214 443.515,182.033 442.872,182.033C442.206,182.033 441.696,182.223 441.34,182.606C440.987,182.989 440.809,183.49 440.809,184.109ZM439.783,184.121C439.783,183.644 439.858,183.216 440.006,182.842C440.154,182.467 440.365,182.151 440.637,181.891C440.908,181.632 441.234,181.433 441.614,181.297C441.991,181.161 442.411,181.092 442.872,181.092C443.334,181.092 443.756,181.161 444.134,181.297C444.514,181.433 444.837,181.632 445.105,181.891C445.371,182.151 445.579,182.467 445.73,182.842C445.877,183.216 445.95,183.644 445.95,184.121C445.95,184.598 445.877,185.026 445.73,185.406C445.579,185.786 445.371,186.103 445.105,186.363C444.837,186.622 444.514,186.821 444.134,186.957C443.756,187.093 443.334,187.162 442.872,187.162C442.411,187.162 441.991,187.093 441.614,186.957C441.234,186.821 440.908,186.622 440.637,186.363C440.365,186.103 440.154,185.786 440.006,185.406C439.858,185.026 439.783,184.598 439.783,184.121Z" style="fill:white;fill-rule:nonzero;"/>
        <rect x="446.692" y="187.063" width="5.217" height="0.95" style="fill:white;fill-rule:nonzero;"/>
    </g>
</svg>
