<?xml version="1.0" encoding="UTF-8" standalone="no"?><!DOCTYPE svg PUBLIC "-//W3C//DTD SVG 1.1//EN" "http://www.w3.org/Graphics/SVG/1.1/DTD/svg11.dtd"><svg width="100%" height="100%" viewBox="0 0 2842 2393" version="1.1" xmlns="http://www.w3.org/2000/svg" xmlns:xlink="http://www.w3.org/1999/xlink" xml:space="preserve" xmlns:serif="http://www.serif.com/" style="fill-rule:evenodd;clip-rule:evenodd;stroke-linejoin:round;stroke-miterlimit:2;"><path d="M2098.836,1645.814c-105.719,309.819 -320.04,569.82 -595.999,734.761l0,-441.089c0,-162.653 -131.866,-294.519 -294.519,-294.519l-245.861,0c-157.449,0 -285.114,-127.665 -285.114,-285.145l0,-696.763c74.806,53.549 241.378,83.364 325.369,83.364l500.124,0l0,-734.73c274.768,164.221 488.462,422.685 594.619,730.78c2.038,1.473 3.511,2.508 5.549,3.95l732.849,0.032c3.511,0 5.706,-2.822 5.706,-6.302c0,-408.765 -331.389,-740.154 -740.154,-740.154l-597.19,0c-0.784,0 -0.753,0.878 -1.38,1.097l0,-1.097l-275.394,0c-589.634,0 -1116.376,413.593 -1211.121,995.609c-121.833,748.274 454.884,1395.815 1179.393,1395.815l307.122,0l0,-0.251c0.627,0.219 0.596,1.097 1.38,1.097l597.127,0c408.953,0 740.53,-331.702 740.217,-740.75c0,-3.104 -2.571,-5.706 -5.706,-5.706l-737.019,0Z" style="fill:#fff;fill-rule:nonzero;"/></svg>