<?xml version="1.0" encoding="UTF-8" standalone="no"?><!DOCTYPE svg PUBLIC "-//W3C//DTD SVG 1.1//EN" "http://www.w3.org/Graphics/SVG/1.1/DTD/svg11.dtd"><svg width="100%" height="100%" viewBox="0 0 3292 2772" version="1.1" xmlns="http://www.w3.org/2000/svg" xmlns:xlink="http://www.w3.org/1999/xlink" xml:space="preserve" xmlns:serif="http://www.serif.com/" style="fill-rule:evenodd;clip-rule:evenodd;stroke-linejoin:round;stroke-miterlimit:2;"><path d="M2430.221,1906.122c-122.306,358.429 -370.253,659.223 -689.509,850.043l0,-510.295c0,-188.173 -152.555,-340.728 -340.728,-340.728l-284.436,0c-182.152,0 -329.847,-147.695 -329.847,-329.883l0,-806.083c86.542,61.951 279.249,96.444 376.419,96.444l578.592,0l0,-850.007c317.878,189.987 565.1,489.003 687.913,845.437c2.358,1.705 4.062,2.902 6.42,4.57l847.831,0.037c4.062,0 6.602,-3.264 6.602,-7.291c0,-472.899 -383.383,-856.282 -856.282,-856.282l-690.887,0c-0.907,0 -0.871,1.016 -1.596,1.27l0,-1.27l-318.603,0c-682.145,0 -1291.532,478.485 -1401.143,1151.817c-140.949,865.676 526.254,1614.814 1364.437,1614.814l355.309,0l0,-0.29c0.726,0.254 0.689,1.269 1.596,1.269l690.815,0c473.117,0 856.717,-383.745 856.355,-856.971c0,-3.591 -2.974,-6.601 -6.602,-6.601l-852.655,0Z" style="fill:#3729be;fill-rule:nonzero;stroke:#656565;stroke-opacity:0;stroke-width:4.17px;"/></svg>